<svg version="1.1" id="Layer_1" xmlns="http://www.w3.org/2000/svg" xmlns:xlink="http://www.w3.org/1999/xlink" x="0px" y="0px"
	 width="100%" viewBox="0 0 260 194" enable-background="new 0 0 260 194" xml:space="preserve">
<path fill="#FDEFEB" opacity="1.000000" stroke="none" 
	d="
M260.775391,113.700203 
	C261.000000,115.714355 261.000000,117.428719 261.000000,119.571533 
	C259.058075,126.371002 254.200455,129.578247 248.303116,131.585434 
	C242.119614,133.690033 235.671173,134.618759 229.213608,135.095734 
	C221.929840,135.633728 214.652283,136.263733 207.344559,136.615250 
	C184.916641,137.694061 162.470825,137.029205 140.054703,137.717407 
	C129.413422,138.044113 118.836594,139.024292 107.833069,137.244705 
	C104.472328,136.350220 103.234238,133.866531 102.487709,131.373596 
	C99.748993,122.228050 94.095070,114.992813 87.563133,107.839264 
	C82.920364,102.261696 77.692657,97.742554 73.902405,91.845055 
	C71.026199,87.369766 69.154922,82.901520 69.463486,77.239159 
	C71.986435,73.882698 75.853394,73.987213 79.282394,72.309036 
	C86.943817,69.121513 88.403954,69.883537 89.678268,77.785187 
	C90.070679,80.218376 91.209221,79.951706 92.765640,79.115753 
	C95.970604,77.394379 98.500526,77.746216 100.065582,81.366859 
	C100.946854,83.405647 102.185722,83.284370 103.402435,81.713295 
	C106.205078,78.094391 109.276619,77.160385 113.201767,80.167511 
	C114.929596,81.491249 115.714516,80.894119 115.695496,78.526039 
	C115.659859,74.089325 117.820816,71.597679 121.664803,71.870087 
	C124.951859,72.103020 125.577530,71.714310 124.001137,68.514160 
	C122.052650,64.558632 123.464394,61.690094 127.804794,59.868851 
	C128.447372,59.777607 128.790253,59.706989 129.282990,59.454433 
	C129.442032,59.312870 129.554092,58.923843 129.475739,58.736778 
	C129.161560,58.332756 128.884689,58.199844 128.278625,58.104130 
	C122.924049,55.705856 122.093315,51.983826 125.415199,46.463852 
	C125.098885,45.420364 124.177666,45.557438 123.389511,45.453136 
	C118.489365,44.804680 117.171928,43.486294 116.904541,38.628403 
	C116.823685,37.159378 116.717117,35.412128 114.878311,36.494938 
	C109.523758,39.648056 106.187668,37.322159 103.351746,32.344395 
	C101.649559,34.369801 101.165237,36.943836 98.232903,37.523716 
	C95.584595,38.047432 93.995140,35.886086 91.440521,35.861668 
	C90.795174,38.445808 92.214935,42.355576 87.301682,42.451412 
	C82.357445,39.104275 79.224060,39.979916 77.135635,45.136009 
	C76.401596,46.948261 75.918396,48.858540 74.868698,50.936913 
	C71.307503,55.702744 69.103813,60.887691 65.867920,65.432129 
	C64.342957,67.573753 62.914143,69.791809 59.956676,70.944832 
	C58.026367,71.343857 56.475113,71.354034 54.593964,70.721893 
	C52.504585,68.906792 53.205513,67.153557 54.279785,65.633965 
	C57.696590,60.800785 56.518299,56.627075 52.470863,52.436790 
	C50.620270,48.757256 47.902485,47.936501 44.434795,48.761536 
	C42.514530,49.218407 40.568634,49.569828 38.632565,49.955029 
	C34.368637,50.803371 31.219639,52.637810 31.098610,57.592770 
	C31.070456,58.745480 30.605009,59.856030 28.964939,60.363251 
	C24.752541,53.754223 18.940399,48.569016 14.944403,42.209656 
	C8.534671,32.009010 15.469689,14.327062 27.410906,8.848680 
	C36.223812,4.805503 45.591824,5.016031 54.911671,6.094653 
	C70.872314,7.941839 86.181931,12.643950 101.522751,17.184990 
	C119.606941,22.538090 137.801544,27.096579 156.927200,26.693785 
	C165.688614,26.509266 174.174118,25.459820 182.432770,22.554949 
	C184.155365,21.949053 185.879364,21.281958 188.154083,21.399574 
	C190.278320,22.495621 190.255981,24.216568 189.984833,25.784782 
	C189.288300,29.812939 190.796127,33.088741 193.256943,36.502705 
	C190.785492,39.434704 189.469254,39.404877 187.218781,35.961594 
	C185.500885,33.333176 184.383118,32.774632 182.912247,35.996861 
	C181.363388,39.389893 178.860703,39.558460 175.944061,37.822006 
	C173.890991,36.599674 172.931778,37.039146 172.841049,39.521767 
	C172.696335,43.481300 170.506668,45.552723 166.586563,45.861469 
	C165.255432,45.966305 163.847061,45.832561 164.310440,48.035984 
	C165.941635,55.792328 165.898407,55.801418 159.950729,59.639393 
	C161.680679,61.314781 164.771912,61.218136 165.378738,64.274582 
	C165.876083,66.779602 165.567535,68.676361 163.978714,70.723671 
	C162.788803,72.256966 164.328293,72.762405 165.582001,72.617180 
	C170.550079,72.041687 172.655701,74.522987 172.777695,79.174843 
	C172.834076,81.324211 173.541580,81.926117 175.495773,80.666405 
	C179.117737,78.331604 181.720291,79.214325 183.246033,83.274071 
	C183.849426,84.879631 184.698334,86.212807 186.353241,84.236694 
	C191.073486,78.600212 191.231491,78.533325 197.828003,81.518021 
	C198.372635,76.305191 200.120590,72.119469 206.358215,72.173111 
	C207.321320,72.181404 207.858292,71.306900 207.339417,70.398201 
	C204.196167,64.893547 206.653259,61.729843 212.717850,59.609894 
	C208.880707,57.795635 205.769394,56.265549 205.635391,52.116905 
	C205.558243,49.728043 206.603363,48.370281 209.010773,47.436810 
	C209.608612,47.326923 209.854004,47.313496 210.464905,47.363716 
	C211.782944,47.764400 212.519577,48.424091 213.544128,49.293266 
	C216.889069,52.660114 220.377426,52.855843 224.387238,51.447353 
	C229.483078,49.657402 234.194122,46.527821 240.225906,46.399513 
	C237.520416,43.883739 236.813675,40.288593 235.449997,36.982620 
	C233.852966,33.110897 231.440887,30.368076 226.308685,31.810272 
	C225.007828,32.199265 224.048309,32.467438 222.720291,32.873074 
	C220.351639,33.135468 218.028870,33.525414 217.482254,30.929241 
	C216.905304,28.189054 219.153183,27.302189 221.257278,26.597963 
	C223.148178,25.965103 225.115616,25.691147 227.097977,25.624039 
	C232.049255,25.456423 235.184021,23.178734 236.163422,17.768915 
	C237.809509,15.538367 239.637573,16.054712 241.269379,16.952379 
	C254.592438,24.281519 258.220703,36.579296 249.943390,48.157135 
	C246.725952,52.657513 242.935349,56.573830 238.673477,60.106434 
	C233.800598,64.145462 229.104263,68.435883 225.478027,73.667862 
	C219.472900,82.332069 220.725540,87.660301 229.792755,92.895798 
	C234.710632,95.735428 240.031464,97.711418 245.239670,99.920235 
	C249.555557,101.750603 253.681320,103.871292 257.220673,107.004524 
	C259.152069,108.714333 260.674561,110.625839 260.775391,113.700203 
z"/>
<path fill="#FFFFFF" opacity="1.000000" stroke="none" 
	d="
M105.850632,136.336624 
	C111.023392,135.359161 115.849503,137.324020 120.859306,137.013458 
	C143.265274,135.624451 165.736252,136.804321 188.118729,135.766693 
	C207.058182,134.888687 226.203064,135.632599 244.896576,131.084198 
	C251.584015,129.457031 256.685242,126.003517 260.728210,120.188347 
	C261.000000,143.457794 260.850708,166.917419 261.135376,190.371750 
	C261.187592,194.675476 259.953217,195.107513 256.143433,195.097519 
	C201.741684,194.954620 147.339432,195.000000 92.468658,195.000000 
	C92.839592,191.643570 95.696854,192.712387 97.700432,192.731674 
	C104.875648,192.800720 111.990456,192.402405 119.110054,190.818878 
	C115.481560,190.468201 111.944206,189.601959 107.940102,189.216324 
	C104.215714,188.499939 101.740028,185.956207 98.190674,184.788605 
	C96.487251,183.685501 95.468468,182.542648 95.444130,180.418564 
	C98.846596,171.139771 103.001358,162.628082 107.755112,154.401810 
	C109.168892,151.955307 109.216095,149.462708 108.511429,146.707642 
	C107.649132,143.336258 105.714394,140.267334 105.850632,136.336624 
z"/>
<path fill="#FFFFFF" opacity="1.000000" stroke="none" 
	d="
M261.000000,113.531342 
	C257.606079,107.130234 251.348022,103.879013 244.727295,101.044968 
	C238.334595,98.308540 231.722107,96.025230 225.951889,91.984901 
	C220.475723,88.150452 219.092926,83.397842 221.834351,77.384117 
	C225.324738,69.727425 231.634155,64.444023 237.813919,59.212204 
	C242.424332,55.308998 246.631271,51.116974 249.877777,46.107224 
	C257.240417,34.745872 251.926895,22.526327 237.635956,16.979424 
	C236.518631,16.787354 236.033508,16.249325 235.388519,15.362185 
	C233.836151,12.211962 232.803497,9.222980 231.445602,6.372562 
	C230.931656,5.293716 230.380905,3.910946 229.022919,4.354342 
	C223.830658,6.049644 218.079041,5.609946 213.223679,8.516272 
	C212.359360,9.033647 211.747787,9.844877 210.937744,10.936281 
	C210.118729,11.999474 209.412460,12.670961 208.318848,13.469776 
	C206.198135,14.524086 204.248062,14.976843 202.036560,15.813374 
	C198.040039,16.737915 194.653854,18.796511 190.369858,18.111256 
	C189.627045,17.944263 189.233688,17.860336 188.855606,18.092720 
	C188.826736,18.110460 189.036911,18.220003 189.570831,18.579391 
	C190.029419,19.925814 189.903488,20.890932 188.891022,21.873680 
	C167.519974,30.546515 146.002426,29.536015 124.578751,24.583334 
	C107.029488,20.526329 89.798470,15.112120 72.323296,10.708632 
	C59.786156,7.549455 47.108883,5.659278 34.042801,7.948476 
	C16.985081,10.937015 12.019856,29.381300 14.924858,39.345192 
	C15.712178,42.045631 17.328428,44.064541 19.348438,45.826275 
	C23.687584,49.610622 26.964159,54.080425 28.910656,59.856834 
	C30.745775,62.002621 30.338589,64.222420 30.015827,66.798523 
	C25.256506,77.488052 18.581924,86.314880 10.305457,93.987595 
	C6.603767,97.419258 4.783572,102.219002 1.363015,106.063721 
	C1.000000,72.197655 1.031948,38.395218 0.939528,4.593122 
	C0.932111,1.880329 1.148142,0.892838 4.400789,0.897814 
	C88.823204,1.026958 173.245911,1.032162 257.668243,0.884859 
	C261.119965,0.878836 261.045807,2.137562 261.041565,4.662130 
	C260.980682,40.795567 261.000000,76.929146 261.000000,113.531342 
z"/>
<path fill="#FFFFFF" opacity="1.000000" stroke="none" 
	d="
M45.014648,194.604767 
	C31.547043,195.000000 18.091366,194.853500 4.643038,195.103012 
	C1.280805,195.165405 0.925353,194.050827 0.937391,191.167007 
	C1.044850,165.424133 1.000000,139.680634 1.000000,113.468658 
	C2.446776,112.688850 3.152230,113.743294 3.772821,114.677139 
	C7.374230,120.096474 12.789597,122.941826 18.617325,125.151260 
	C30.224047,129.551636 42.291187,131.735001 54.639732,132.709732 
	C59.769688,133.114655 64.901482,133.563324 70.410011,134.157013 
	C74.782387,137.893509 74.503487,142.997864 75.135582,147.614471 
	C76.394867,156.811874 76.154602,156.811127 67.952713,161.004807 
	C61.617016,164.244293 54.994549,166.959137 48.821449,171.334473 
	C47.540157,172.002518 46.534199,172.269409 45.143524,172.564941 
	C40.754791,172.502411 40.208160,174.862350 40.680641,178.142227 
	C41.159443,181.465958 43.215488,184.725327 40.923805,188.422821 
	C33.125229,190.131302 25.402637,189.104950 17.331369,191.039246 
	C24.562717,191.912537 31.232365,192.780228 38.022518,192.615189 
	C40.428864,192.556702 43.066902,192.065613 45.014648,194.604767 
z"/>
<path fill="#FDEFEB" opacity="1.000000" stroke="none" 
	d="
M71.235825,134.659210 
	C51.890579,134.573151 32.991417,132.773438 15.105434,125.163078 
	C9.300403,122.693069 4.321647,119.322380 1.272018,113.194923 
	C1.000000,110.958336 1.000000,108.916664 1.000000,106.437500 
	C4.634176,96.028015 13.239026,89.874001 19.660435,82.075203 
	C23.251619,77.713722 24.936924,72.350693 28.847027,68.044685 
	C30.204086,68.451378 30.891321,69.294281 30.925440,70.288353 
	C31.135239,76.401306 32.786324,82.417633 32.104111,88.592690 
	C31.934387,90.128937 30.578037,92.087387 32.465847,93.140411 
	C34.473038,94.260017 36.667175,93.562187 38.550179,92.284264 
	C39.525208,91.622536 40.123062,90.590256 41.121681,89.431122 
	C43.291725,88.046104 44.116329,89.731262 45.020054,90.732803 
	C48.942287,95.079552 53.393513,98.704842 58.470570,101.655083 
	C62.558990,104.030846 65.763412,107.373512 67.787155,112.179916 
	C68.292892,114.005646 68.388786,115.509453 68.033928,116.955421 
	C66.740074,122.227684 67.495430,127.083740 70.691460,131.529053 
	C71.272842,132.337692 71.626862,133.272034 71.235825,134.659210 
z"/>
<path fill="#FCEFEB" opacity="1.000000" stroke="none" 
	d="
M45.468658,195.000000 
	C41.607899,192.876297 37.874165,194.206207 34.317574,194.067719 
	C27.287882,193.793945 20.351664,193.156860 13.529382,191.024841 
	C22.220646,187.843872 31.208323,187.959122 40.663834,188.002258 
	C47.745636,190.758942 48.749889,190.601562 53.261467,186.021484 
	C63.373653,185.047989 73.128250,185.563797 83.283539,185.616302 
	C89.190735,187.341202 94.857979,188.434479 100.207909,190.709213 
	C102.392441,191.638077 105.494232,193.140625 106.553116,188.485886 
	C112.414864,188.044968 118.000961,188.860931 124.954453,190.677414 
	C118.406868,193.507355 112.829781,193.345764 107.445747,193.934433 
	C102.526329,194.472305 97.521927,193.512283 92.293884,194.703094 
	C76.645775,195.000000 61.291546,195.000000 45.468658,195.000000 
z"/>
<path fill="#3F3D55" opacity="1.000000" stroke="none" 
	d="
M71.306534,135.278168 
	C70.896469,131.365448 67.288055,129.554550 66.588905,125.930450 
	C65.743210,121.546715 67.392517,117.497002 67.027054,112.881577 
	C68.454445,109.848946 71.150558,110.113937 73.455345,109.750328 
	C78.116760,109.014923 82.844925,108.650291 87.648399,106.743134 
	C96.571251,114.732262 101.523453,124.832062 105.725861,135.778992 
	C112.632713,147.180756 108.858101,157.167419 102.361221,166.755005 
	C99.614815,170.807907 98.884827,175.668686 96.309128,179.997467 
	C92.904472,180.890503 90.623779,178.999786 87.826447,177.608307 
	C85.494461,175.373077 86.164139,173.099152 86.898659,170.844193 
	C89.025604,164.314575 93.057068,158.692734 95.943756,152.133987 
	C97.773750,150.476685 99.120735,148.906342 97.851463,146.714554 
	C95.279388,142.273056 92.812325,137.766800 89.989738,133.474045 
	C89.957428,133.424911 89.654938,133.490524 89.535370,133.579178 
	C89.413101,133.669830 89.360909,133.854965 89.187515,134.297333 
	C89.026306,134.796631 88.955605,134.997375 88.735123,135.485062 
	C88.776970,136.236603 87.348679,135.944107 88.362183,136.964264 
	C88.765808,137.655396 88.906265,138.095673 89.057800,138.903427 
	C89.158340,139.738480 89.192322,140.221222 89.238144,141.078690 
	C89.275536,141.706299 89.288048,141.960068 89.313232,142.599640 
	C89.317390,147.142838 89.257370,151.302124 89.338753,155.457092 
	C89.428085,160.018082 87.775871,164.058258 83.884254,166.008575 
	C73.990593,170.966858 63.852306,175.438721 53.772507,180.771790 
	C49.689640,178.842804 47.928768,175.748764 47.785042,171.341782 
	C53.584244,166.280121 60.421635,163.639252 66.803947,160.242569 
	C75.841118,155.432983 75.960205,155.604218 73.919655,145.682053 
	C73.222031,142.289856 72.363068,138.930832 71.306534,135.278168 
z"/>
<path fill="#F4856B" opacity="1.000000" stroke="none" 
	d="
M207.635315,13.251364 
	C208.250183,12.197086 208.683014,11.432694 209.342285,10.427467 
	C213.062622,10.777000 216.559616,12.296417 220.366104,9.990718 
	C220.926819,9.785249 221.165863,9.740869 221.756042,9.806274 
	C224.150803,12.071457 226.678925,12.822729 229.614075,12.856672 
	C231.726593,12.881104 233.845978,13.329926 236.020996,14.708477 
	C236.594467,15.390038 236.837265,15.904723 237.180511,16.692234 
	C236.823364,24.136305 234.403595,26.623362 227.333359,27.243322 
	C225.360992,27.416271 223.385788,27.605902 221.430389,27.907785 
	C219.835083,28.154078 217.719101,28.256338 218.112747,30.594801 
	C218.470520,32.720177 220.419647,31.841425 222.199524,31.857332 
	C223.527237,31.507870 224.529892,31.548452 225.731934,31.105101 
	C231.573013,29.065109 234.592850,30.602707 236.801376,36.756393 
	C238.031494,40.183907 238.857910,43.750229 241.897766,46.846222 
	C235.240479,47.751373 229.871689,50.858086 224.130096,52.956646 
	C219.978745,54.473976 216.311844,53.889877 212.955353,50.429081 
	C212.289291,46.171654 209.862045,41.928719 214.530823,38.778233 
	C213.335312,39.543781 212.088715,39.371681 210.504456,38.841751 
	C208.928055,37.942669 208.039230,36.761402 206.910400,35.851639 
	C206.503372,35.523609 206.280075,34.602261 205.704056,35.447929 
	C205.493561,35.756962 206.374649,36.384617 205.913452,37.293251 
	C204.573639,38.141098 203.400589,38.155418 201.861053,37.945511 
	C199.208466,36.722469 196.868820,36.321114 194.119629,37.602074 
	C187.431244,34.254120 188.331696,28.429878 188.628677,22.374218 
	C188.571335,21.065750 188.628433,20.154581 188.751862,18.904091 
	C188.777496,18.336939 188.736816,18.109110 188.847748,17.568993 
	C193.225235,17.857584 196.933228,15.116407 201.490723,15.466537 
	C207.225906,15.689862 207.491760,20.096760 208.928268,24.744759 
	C210.083405,20.091629 205.760315,17.189972 207.635315,13.251364 
z"/>
<path fill="#F26A4B" opacity="1.000000" stroke="none" 
	d="
M87.984528,106.462753 
	C85.075333,110.915634 80.262299,109.810677 76.214317,110.831276 
	C73.490135,111.518105 70.654686,111.763596 67.467682,112.341652 
	C64.079460,107.221687 59.789856,103.520088 54.465580,100.576118 
	C49.697361,97.939621 45.916718,93.870712 42.460854,89.182007 
	C39.000538,82.908768 39.536900,79.244545 44.596256,74.820404 
	C47.674141,74.171066 50.490093,73.993217 53.318958,72.488037 
	C55.450275,71.382240 57.396294,70.801071 59.693298,70.253754 
	C65.902252,65.587509 67.966400,58.407616 72.126419,52.695057 
	C72.513931,52.162918 72.893517,51.625000 73.595490,50.944450 
	C76.483780,49.729595 78.237373,51.251766 80.198303,53.035244 
	C80.823334,56.066860 78.628227,57.626652 77.430420,59.998810 
	C77.137421,60.490570 77.016350,60.683125 76.701096,61.152336 
	C74.741814,63.382561 73.206856,65.480583 72.274490,68.332436 
	C71.363884,71.176003 70.649246,73.734062 69.884018,76.617760 
	C70.977043,89.706535 79.806862,97.699875 87.984528,106.462753 
z"/>
<path fill="#44425A" opacity="1.000000" stroke="none" 
	d="
M193.397766,37.779518 
	C195.948395,35.624683 198.100281,33.480644 201.046997,37.160667 
	C200.960876,42.834454 200.960236,42.849701 206.442032,43.082630 
	C207.649460,43.133930 208.745438,43.349270 209.812836,44.551582 
	C210.142899,45.029018 210.257477,45.232113 210.483841,45.767193 
	C210.651703,46.567581 210.607483,47.025093 210.218460,47.732861 
	C208.822296,49.350597 205.284393,48.690548 206.660629,52.260704 
	C207.569107,54.617455 207.109604,57.899204 211.292130,57.069939 
	C213.052628,56.720886 213.584946,57.800346 213.547150,59.425507 
	C213.511185,60.971321 213.154373,62.035130 211.302368,61.872387 
	C209.168915,61.684917 207.554855,61.877037 207.021500,64.670944 
	C206.574417,67.012825 206.241776,68.779366 208.854782,69.882248 
	C210.201004,70.450439 210.285019,71.389862 209.549194,72.696060 
	C208.739914,74.132675 207.602112,74.301384 206.221054,74.115196 
	C201.367783,73.460884 199.339401,75.361351 200.153320,79.935371 
	C200.462067,81.670494 199.867599,82.732826 198.383301,83.572906 
	C196.476562,84.652084 195.986404,83.090813 195.491501,81.991524 
	C194.399216,79.565346 192.797379,80.464714 190.957977,80.820686 
	C188.947800,81.209717 187.395950,81.518562 187.695587,84.071754 
	C187.910873,85.906136 187.128876,86.746948 185.147430,86.806023 
	C182.759872,86.877205 182.242310,85.599411 182.484421,83.699150 
	C182.782135,81.362488 181.130127,81.161423 179.560165,80.521805 
	C177.699463,79.763763 176.803116,80.479370 176.010269,82.007782 
	C175.260971,83.452217 174.405991,84.408333 172.510239,83.245285 
	C170.696106,82.132324 170.190216,81.057495 171.585297,79.322708 
	C173.352570,77.125145 171.224075,76.212738 170.148254,74.885399 
	C168.827728,73.256134 167.503418,72.409096 165.625000,74.065666 
	C164.057068,75.448425 163.143784,74.732033 162.190857,73.167831 
	C161.238602,71.604744 161.034103,70.450279 162.936340,69.649200 
	C165.475357,68.579971 164.743668,66.838478 164.425110,64.734894 
	C164.001572,61.938221 162.480408,61.628666 160.318542,61.873447 
	C158.110229,62.123482 157.997421,60.813969 157.942032,59.124729 
	C157.878555,57.189247 158.909271,56.942814 160.424667,57.037575 
	C162.305450,57.155182 163.997528,57.257305 164.211212,54.500450 
	C164.376617,52.366291 166.447418,50.055199 162.952576,48.742470 
	C161.273834,48.111900 161.432663,46.984840 162.174286,45.607136 
	C162.973892,44.121738 163.843002,42.981487 165.558701,44.277653 
	C167.730209,45.918186 169.006546,44.713470 170.623459,43.251888 
	C172.306168,41.730839 172.676224,40.470680 171.252441,38.655609 
	C170.090637,37.174484 171.061646,36.387215 172.307846,35.530354 
	C173.870148,34.456139 174.988525,34.464314 175.838257,36.268047 
	C176.643372,37.977100 177.683823,38.616158 179.763870,38.072792 
	C181.772385,37.548122 182.637695,36.673832 182.460556,34.682888 
	C182.244568,32.255127 183.876770,32.086880 185.660080,31.986809 
	C187.623856,31.876610 187.745895,33.096500 187.718918,34.558643 
	C187.645493,38.538719 190.663498,37.728901 193.397766,37.779518 
z"/>
<path fill="#44425A" opacity="1.000000" stroke="none" 
	d="
M154.925659,115.167572 
	C153.745712,113.025742 152.855850,111.467834 150.161911,112.707443 
	C148.425568,113.506424 146.044174,113.090416 146.398010,116.115814 
	C146.614044,117.963120 145.809189,118.812729 143.826828,118.801949 
	C141.909439,118.791519 141.011673,118.102417 141.199402,116.172226 
	C141.378281,114.332809 140.952591,113.290283 138.833542,112.623909 
	C136.471451,111.881088 135.396225,112.639526 134.570999,114.531174 
	C133.661560,116.615845 132.498474,115.926605 131.049652,115.107956 
	C129.402054,114.176979 128.924973,113.123451 130.213165,111.668495 
	C132.337006,109.269676 130.002625,108.327179 128.846878,106.866653 
	C127.498810,105.163101 126.182808,104.464417 124.367607,106.131439 
	C122.659096,107.700470 121.926941,106.439873 120.975723,105.114723 
	C119.818604,103.502716 119.980927,102.357468 121.797157,101.655006 
	C124.923042,100.446022 123.285217,98.317581 123.115555,96.287315 
	C122.909042,93.816238 121.442497,93.785484 119.691086,93.907700 
	C117.991562,94.026299 116.904907,93.741158 116.809258,91.584389 
	C116.698555,89.088402 118.012505,88.841202 119.874786,89.047363 
	C121.918076,89.273560 122.949310,88.503296 123.044319,86.341766 
	C123.128151,84.434479 125.400635,82.233467 122.098602,80.907272 
	C120.496437,80.263794 119.687775,79.396957 120.934189,77.589264 
	C121.862419,76.243034 122.681290,74.957497 124.384331,76.279755 
	C126.563148,77.971405 127.804756,76.715294 129.433197,75.289093 
	C131.168671,73.769180 131.520721,72.506882 130.053391,70.710373 
	C129.395554,69.904953 129.029129,68.933975 130.185455,68.191231 
	C131.383377,67.421776 132.868027,67.123512 134.019470,67.807846 
	C139.951553,71.333481 140.699005,71.050774 141.544235,64.676979 
	C143.933121,65.035439 146.751709,64.423157 146.879715,68.578110 
	C146.935928,70.403091 152.975388,70.496872 154.216843,68.506561 
	C155.428482,66.564064 156.410873,66.666801 158.199478,67.667206 
	C160.162033,68.764908 159.853668,69.900429 158.762161,71.199562 
	C157.194397,73.065559 158.417969,74.101036 159.711334,75.291420 
	C161.042923,76.516983 162.086777,78.162643 164.274017,76.601425 
	C165.214615,75.930038 166.364426,74.699303 167.518692,76.614235 
	C168.526474,78.286201 168.751404,79.986809 166.936981,80.881493 
	C163.430145,82.610695 166.171738,84.868187 166.172897,86.861031 
	C166.174377,89.418304 168.150375,89.140610 169.762161,89.009827 
	C171.802963,88.844238 172.374069,89.742111 172.292526,91.621536 
	C172.221558,93.257828 171.670975,94.116318 169.917496,93.906502 
	C167.681519,93.638962 166.300415,94.075577 165.839661,96.836098 
	C165.483124,98.972122 164.815475,100.602661 167.335236,101.692322 
	C168.639908,102.256516 169.629532,103.028297 168.354233,104.706894 
	C167.396362,105.967659 166.511673,107.514137 164.873688,106.128563 
	C162.259842,103.917519 161.248505,106.187111 159.614624,107.466324 
	C157.722977,108.947350 158.242096,110.128189 158.984451,112.067963 
	C160.430008,115.845078 157.543213,115.629585 154.925659,115.167572 
z"/>
<path fill="#434059" opacity="1.000000" stroke="none" 
	d="
M76.290649,59.971142 
	C77.429520,57.913879 78.683678,56.176991 80.061234,54.129822 
	C81.659668,49.594265 81.647423,44.582577 86.752213,42.116875 
	C89.262779,41.014160 92.096771,40.209461 89.679916,36.863369 
	C88.854431,35.720497 88.835014,34.752174 90.217415,34.026516 
	C91.468987,33.369530 92.772331,33.327110 93.900490,34.122211 
	C98.753258,37.542339 99.061234,37.496059 101.063828,32.516735 
	C101.369720,31.756145 101.874130,30.540291 102.577652,30.957617 
	C103.736061,31.644777 105.405602,31.291527 106.093277,33.161457 
	C107.742912,37.647213 110.805679,38.245743 114.297905,34.760292 
	C115.654716,33.406105 116.423851,33.936268 117.620239,34.707436 
	C118.932777,35.553474 119.352562,36.238720 118.621979,37.897583 
	C116.928024,41.743851 119.408005,44.461121 123.796455,43.805561 
	C125.307274,43.579872 126.568161,43.534908 127.491951,45.238522 
	C128.630341,47.337891 127.308693,47.913879 125.871902,48.492287 
	C122.444221,49.872162 125.172516,52.117073 125.092796,53.945103 
	C124.960770,56.973106 127.213310,56.756889 129.610168,56.898972 
	C130.159088,57.164459 130.320251,57.332031 130.727356,57.746830 
	C131.009048,58.445923 131.044815,58.897789 131.006012,59.683743 
	C130.774475,60.186447 130.617493,60.355064 130.225616,60.777161 
	C128.320465,61.854908 125.548386,59.672043 124.789642,63.200108 
	C124.268204,65.624748 122.807518,67.877609 126.200317,69.426521 
	C127.966507,70.232841 127.018196,71.502113 126.303986,72.692223 
	C125.464691,74.090759 124.422653,74.757484 123.154457,73.515175 
	C121.118523,71.520828 119.853226,72.598167 118.320732,74.195625 
	C116.930237,75.645042 115.101913,76.712898 117.078011,78.999222 
	C118.570702,80.726265 117.282753,81.405174 115.876587,82.279121 
	C114.180199,83.333450 113.444084,82.872627 112.374023,81.321701 
	C110.183632,78.146980 105.637558,78.742729 104.396904,82.357079 
	C103.767387,84.191017 102.992195,85.164207 100.978348,85.136536 
	C98.419373,85.101372 99.135460,83.266434 99.205009,81.955505 
	C99.309425,79.987137 98.152672,79.543449 96.602440,78.987831 
	C94.572639,78.260323 93.495827,79.025360 92.643982,80.692024 
	C91.883194,82.180519 90.813614,82.559418 89.483475,81.413757 
	C88.608849,80.660446 86.512337,80.200706 87.972725,78.535866 
	C90.684219,75.444748 88.115295,73.859901 86.377266,72.062119 
	C84.017303,69.621033 82.770142,73.066429 80.535820,73.314140 
	C77.998535,72.169769 77.057335,70.546829 78.469101,68.111664 
	C81.500809,62.882248 81.489075,62.875446 76.290649,59.971142 
z"/>
<path fill="#413E57" opacity="1.000000" stroke="none" 
	d="
M46.325829,74.943069 
	C39.707771,77.980675 42.185097,83.424629 42.174828,88.558975 
	C40.318821,95.888664 34.992626,95.474579 29.119707,94.850510 
	C32.380798,86.176315 29.641653,77.452110 29.404110,68.366684 
	C29.259882,65.646179 29.308815,63.287571 29.286270,60.492607 
	C29.297873,59.913273 29.439436,59.776627 29.455698,59.626411 
	C30.716089,47.984879 32.233223,50.820843 41.909649,47.738525 
	C45.098072,46.722889 48.788757,45.653061 52.000362,48.730728 
	C52.901707,49.594482 52.886997,50.275040 53.023087,51.581123 
	C51.669323,57.077744 51.225304,62.274326 51.162945,67.558098 
	C51.126068,70.682701 49.616627,73.270050 46.325829,74.943069 
z"/>
<path fill="#F6BCBB" opacity="1.000000" stroke="none" 
	d="
M46.183010,75.268372 
	C49.681686,71.804398 50.627934,67.582634 50.095249,62.879059 
	C49.668774,59.113373 49.971043,55.560677 52.910927,52.305744 
	C58.871651,56.881577 59.346134,60.450287 54.952412,66.528603 
	C54.356190,67.353424 53.892075,68.156059 53.983429,69.570068 
	C54.543720,70.577629 54.845402,71.299202 54.648094,72.533081 
	C52.256290,75.129021 49.352505,75.321777 46.183010,75.268372 
z"/>
<path fill="#D96044" opacity="1.000000" stroke="none" 
	d="
M76.107491,60.012505 
	C79.709702,59.413521 82.197029,60.218037 82.226791,64.568047 
	C82.237045,66.066574 82.281136,66.805229 80.736504,67.392593 
	C77.544235,68.606476 78.425774,70.686630 80.033218,73.085472 
	C76.984634,74.529755 73.779785,75.648796 70.213211,76.858276 
	C67.575241,73.751404 71.111237,71.369835 71.110474,68.098938 
	C73.695297,66.469711 74.201096,63.764519 75.756454,61.393456 
	C75.978912,60.861214 76.009262,60.617729 76.107491,60.012505 
z"/>
<path fill="#F2B8B8" opacity="1.000000" stroke="none" 
	d="
M87.113525,41.730042 
	C82.885262,44.742550 83.748825,50.199375 80.464378,53.650574 
	C78.317307,52.896210 76.449966,51.972878 74.248421,50.924343 
	C74.811996,48.126747 75.504936,45.362499 76.652924,42.802288 
	C78.652344,38.343239 84.479828,37.596493 87.113525,41.730042 
z"/>
<path fill="#E5836E" opacity="1.000000" stroke="none" 
	d="
M209.614975,37.842834 
	C211.890076,37.887486 213.811386,39.021492 215.987183,37.753143 
	C211.581924,41.137260 213.249573,45.548790 213.078491,49.888275 
	C212.283051,49.566868 211.785034,49.018463 211.126404,48.237091 
	C210.470642,47.591812 210.549072,46.952534 210.137024,46.219948 
	C209.932571,46.013451 209.995758,46.002216 209.978027,46.028954 
	C209.366089,43.694595 207.439362,41.662216 208.392517,38.587112 
	C208.791702,38.035759 209.009277,37.861511 209.614975,37.842834 
z"/>
<path fill="#D95A3A" opacity="1.000000" stroke="none" 
	d="
M54.816719,72.873413 
	C54.320103,72.178925 54.123531,71.443253 53.960571,70.325905 
	C55.706856,69.923553 57.419533,69.902878 59.551159,69.970764 
	C58.674480,71.547493 56.795574,72.014740 54.816719,72.873413 
z"/>
<path fill="#F4866C" opacity="1.000000" stroke="none" 
	d="
M225.600708,30.833881 
	C225.432358,31.958696 224.425125,31.998817 222.980850,31.899540 
	C223.471741,31.525829 224.355225,31.188728 225.600708,30.833881 
z"/>
<path fill="#F7E6E2" opacity="1.000000" stroke="none" 
	d="
M209.927551,46.345547 
	C210.930756,45.926956 210.937943,46.644108 210.979721,47.663017 
	C210.965790,48.004120 210.477966,48.003635 210.234100,47.999710 
	C209.967667,47.556400 209.945099,47.117023 209.927551,46.345547 
z"/>
<path fill="#282848" opacity="1.000000" stroke="none" 
	d="
M130.288437,61.050751 
	C130.046936,60.691982 130.209335,60.415783 130.704681,60.109932 
	C130.816360,60.368843 130.701263,60.719856 130.288437,61.050751 
z"/>
<path fill="#282848" opacity="1.000000" stroke="none" 
	d="
M130.993561,57.697014 
	C130.624039,57.938938 130.355087,57.761860 130.082199,57.229851 
	C130.336578,57.131248 130.675201,57.265610 130.993561,57.697014 
z"/>
<path fill="#48455D" opacity="1.000000" stroke="none" 
	d="
M106.372406,188.025208 
	C106.990860,189.471848 108.883522,190.495590 107.607185,192.098816 
	C106.500542,193.488892 104.876106,193.119827 103.496780,192.711960 
	C97.608734,190.970810 91.754959,189.113785 85.586517,187.101166 
	C83.232483,185.045670 83.548927,183.043762 85.249207,180.782364 
	C88.084404,180.141068 89.100624,182.571976 90.943306,183.349640 
	C93.039474,184.234314 94.811424,187.427826 97.879555,184.383545 
	C101.225075,184.468231 103.587845,186.305695 106.372406,188.025208 
z"/>
<path fill="#F3BABA" opacity="1.000000" stroke="none" 
	d="
M97.989868,183.865387 
	C99.060204,187.090866 98.692383,188.475983 95.173576,187.067459 
	C92.060745,185.821457 89.093086,184.494659 86.946228,181.356522 
	C86.012924,179.576889 86.522301,178.367508 87.854973,177.026276 
	C90.589622,177.792313 92.967628,178.771103 95.652298,179.917542 
	C95.819267,181.659424 97.012451,182.510712 97.989868,183.865387 
z"/>
<path fill="#F4866C" opacity="1.000000" stroke="none" 
	d="
M220.904327,9.963863 
	C217.748016,15.142525 213.780060,11.967488 209.787109,10.584089 
	C211.538773,6.783801 215.034576,5.924542 218.431381,5.338379 
	C222.841370,4.577376 227.204880,3.752015 231.664078,1.945050 
	C232.041611,6.593813 234.752029,10.115620 236.270599,14.511194 
	C232.578781,15.259147 229.007523,13.473706 225.191147,13.929080 
	C222.855881,14.207726 222.658386,11.748287 221.303741,10.205280 
	C221.020920,9.979269 220.826508,9.915988 220.904327,9.963863 
z"/>
<path fill="#FEEBE7" opacity="1.000000" stroke="none" 
	d="
M207.443970,12.982020 
	C207.555084,16.089211 209.056229,18.626619 210.470703,21.232773 
	C211.257690,22.682774 211.704239,24.351570 210.523651,25.836197 
	C210.194901,26.249609 209.268906,26.595182 208.814514,26.429592 
	C207.047897,25.785803 207.283737,24.083710 207.234741,22.664444 
	C207.118805,19.306675 205.386688,17.185579 202.136261,15.740973 
	C202.993027,13.452257 205.192368,13.554595 207.443970,12.982020 
z"/>
<path fill="#F4866C" opacity="1.000000" stroke="none" 
	d="
M188.737396,17.259022 
	C188.973312,17.474545 188.947250,17.692383 188.869690,18.237495 
	C188.320816,18.231049 188.099930,17.824608 188.737396,17.259022 
z"/>
<path fill="#46435B" opacity="1.000000" stroke="none" 
	d="
M51.766365,186.701141 
	C53.470055,190.414948 50.861923,190.603821 48.833534,190.819122 
	C46.179333,191.100830 43.201805,191.894562 41.383194,188.275177 
	C40.935112,184.566971 40.465328,181.265457 39.225868,177.938385 
	C37.483982,173.262680 39.887062,170.801498 44.965485,171.524261 
	C46.956970,174.533569 45.016735,177.721420 45.133148,180.954575 
	C45.225544,183.520752 46.140507,184.078690 48.668457,183.816193 
	C50.215908,184.379639 51.152046,185.144547 51.766365,186.701141 
z"/>
<path fill="#EFB6B7" opacity="1.000000" stroke="none" 
	d="
M49.295670,184.597046 
	C46.715111,183.073975 46.011936,186.317841 43.975899,186.723022 
	C43.919868,181.654312 44.124638,176.946442 45.145706,171.792419 
	C45.981079,171.215759 46.663647,171.119537 47.637352,170.995636 
	C49.207523,173.915222 49.864857,177.209198 52.781845,179.624451 
	C52.008488,181.542404 50.444641,182.714417 49.295670,184.597046 
z"/>
<path fill="#FDFDFD" opacity="1.000000" stroke="none" 
	d="
M49.188995,185.089493 
	C49.054008,182.489151 49.890770,180.742325 52.627506,179.981705 
	C53.957806,180.145187 54.919415,180.275177 55.776302,179.484985 
	C62.043182,173.705978 69.752037,170.647842 77.611549,167.828369 
	C85.837929,164.877258 87.878418,161.740677 87.837044,152.989456 
	C87.821312,149.662384 88.093399,146.333923 88.289345,142.546417 
	C88.373421,141.892471 88.402458,141.698196 88.446106,141.209610 
	C88.441788,140.508820 88.422874,140.102341 88.433212,139.391724 
	C88.469498,138.517471 88.715958,138.082947 89.594666,137.730911 
	C94.693199,141.017059 98.136200,145.053101 97.325592,151.661942 
	C94.233070,158.042694 91.207611,164.027603 88.547409,170.170685 
	C87.781708,171.938904 86.212982,173.981995 88.041061,176.495636 
	C87.801460,177.973022 87.391296,179.132538 86.912125,180.655273 
	C84.096832,182.014008 85.451881,184.331863 85.239716,186.516647 
	C74.450195,186.946304 63.616039,186.989319 52.301888,187.052902 
	C50.987312,186.505600 50.152737,185.937714 49.188995,185.089493 
z"/>
<path fill="#3E3C53" opacity="1.000000" stroke="none" 
	d="
M97.461365,151.935532 
	C96.956253,146.478958 93.901337,142.395355 90.200409,138.269318 
	C89.138031,137.548233 88.563240,136.890366 88.280396,135.607056 
	C87.894272,133.772552 88.107857,132.333679 89.626579,130.384003 
	C93.108688,136.322128 96.571632,141.942917 99.694084,147.746918 
	C100.502808,149.250168 99.425713,150.938904 97.461365,151.935532 
z"/>
<path fill="#C0BCC1" opacity="1.000000" stroke="none" 
	d="
M88.091614,135.507904 
	C88.712265,136.021286 89.309189,136.731674 89.938454,137.731155 
	C89.599648,138.285568 89.228508,138.550888 88.659920,138.951904 
	C88.311852,138.617950 88.161232,138.148331 87.919731,137.317444 
	C87.761566,136.801453 87.694290,136.646698 87.741776,136.266373 
	C87.856537,136.040787 88.067886,135.704895 88.091614,135.507904 
z"/>
<path fill="#2D2D4B" opacity="1.000000" stroke="none" 
	d="
M87.710342,136.122223 
	C87.856537,136.040787 87.903412,136.500305 87.866135,136.728241 
	C87.828850,136.956192 87.468361,136.638702 87.468361,136.638702 
	C87.468361,136.638702 87.564148,136.203644 87.710342,136.122223 
z"/>
<path fill="#C0BCC1" opacity="1.000000" stroke="none" 
	d="
M88.336472,141.198730 
	C88.590485,141.123825 88.747726,141.321594 88.835869,141.546417 
	C88.868889,141.630661 88.741119,141.777924 88.515518,141.991608 
	C88.300339,141.885208 88.256287,141.683670 88.336472,141.198730 
z"/>
<path fill="#F8E9E5" opacity="1.000000" stroke="none" 
	d="
M208.523773,37.845966 
	C209.219681,40.522591 209.758865,42.905506 210.129166,45.672058 
	C208.684250,45.052650 207.796707,42.546768 205.686188,44.209160 
	C202.724609,46.541882 201.689972,43.759663 200.073883,42.466694 
	C197.718552,40.582268 200.091370,39.395210 201.009338,37.733063 
	C202.552521,37.340420 203.880386,37.181278 205.603119,36.954750 
	C206.976440,36.436455 207.681305,36.960255 208.523773,37.845966 
z"/>
<path fill="#D17B6C" opacity="1.000000" stroke="none" 
	d="
M219.015747,43.650055 
	C219.301041,40.046352 221.782013,41.159630 223.545990,41.044983 
	C225.451492,40.921146 226.251846,41.903679 225.769455,43.837170 
	C222.294510,40.811821 220.881302,41.279121 219.192154,46.369606 
	C219.107086,45.306938 219.056091,44.669777 219.015747,43.650055 
z"/>
<path fill="#D58070" opacity="1.000000" stroke="none" 
	d="
M209.009979,38.093384 
	C207.972366,37.800064 207.264221,37.460464 206.277039,37.004112 
	C205.485458,36.112114 204.006134,35.668472 205.665176,34.353405 
	C206.962311,33.325214 206.647339,34.414074 207.157227,34.891140 
	C208.049942,35.726376 209.435074,36.036358 209.891174,37.726208 
	C209.781876,38.014641 209.560654,38.030869 209.009979,38.093384 
z"/>
<path fill="#D07B6C" opacity="1.000000" stroke="none" 
	d="
M233.070999,41.166985 
	C235.181793,42.591434 234.030457,43.359814 232.743042,43.199619 
	C231.433594,43.036686 230.228424,42.035755 228.327621,41.072357 
	C230.238586,41.072357 231.495926,41.072357 233.070999,41.166985 
z"/>
<path fill="#D17B6C" opacity="1.000000" stroke="none" 
	d="
M222.882721,37.282707 
	C222.781342,37.765923 222.640472,38.019989 222.499588,38.274059 
	C222.359436,38.020485 222.095581,37.760509 222.108292,37.514843 
	C222.127106,37.151073 222.122620,36.432594 222.882721,37.282707 
z"/>
<path fill="#E5836E" opacity="1.000000" stroke="none" 
	d="
M216.464462,35.447060 
	C216.523911,35.410530 216.405014,35.483585 216.464462,35.447060 
z"/>
<path fill="#F9D7D0" opacity="1.000000" stroke="none" 
	d="
M75.623772,61.161469 
	C75.566719,63.945393 74.921921,66.625618 71.514687,67.769745 
	C72.560303,65.554176 73.245483,62.952633 75.623772,61.161469 
z"/>
<path fill="#FCEEEA" opacity="1.000000" stroke="none" 
	d="
M203.007401,55.591362 
	C204.571136,68.834328 193.761078,79.993736 182.143692,77.615829 
	C173.798294,75.907646 166.727127,65.318535 168.135651,56.638641 
	C169.644058,47.343025 178.194626,40.597126 187.467377,41.679016 
	C195.599991,42.627884 200.713837,47.311375 203.007401,55.591362 
z"/>
<path fill="#FCEFEB" opacity="1.000000" stroke="none" 
	d="
M135.617661,106.634903 
	C127.849274,100.812790 125.237358,93.823601 127.692383,86.076027 
	C130.078003,78.547516 136.702759,73.627045 144.484787,73.603676 
	C152.105545,73.580795 158.703293,78.119987 161.183899,85.497635 
	C163.567154,92.585793 162.074448,98.975540 156.686081,104.236954 
	C151.156616,109.636131 143.976913,110.462517 135.617661,106.634903 
z"/>
<path fill="#FCEEEB" opacity="1.000000" stroke="none" 
	d="
M107.085953,75.207901 
	C101.777245,77.265549 97.546989,75.238342 93.561867,72.718597 
	C89.622215,70.227592 87.098251,66.522369 86.093407,61.948082 
	C83.931831,52.108105 89.913864,42.822781 99.846741,40.444874 
	C108.551735,38.360912 118.021095,44.257133 120.572655,53.350136 
	C123.215279,62.767666 117.655937,71.990952 107.085953,75.207901 
z"/>
<path fill="#F4856B" opacity="1.000000" stroke="none" 
	d="
M220.992310,10.004613 
	C220.696152,9.462301 220.396500,8.918735 220.152588,8.351209 
	C220.134857,8.309994 220.522171,8.094703 220.721176,7.960345 
	C220.815674,8.436873 220.910172,8.913401 221.012787,9.684598 
	C221.020920,9.979269 221.002487,9.997487 220.992310,10.004613 
z"/>
</svg>