<svg version="1.1" id="Layer_1" xmlns="http://www.w3.org/2000/svg" xmlns:xlink="http://www.w3.org/1999/xlink" x="0px" y="0px"
	 width="100%" viewBox="0 0 260 194" enable-background="new 0 0 260 194" xml:space="preserve">
<path fill="#000000" opacity="1.000000" stroke="none" 
	d="
M261.000000,123.000000 
	C261.000000,146.951523 261.000000,170.903046 261.000000,195.000000 
	C212.979202,195.000000 164.958252,195.000000 116.163193,194.646179 
	C117.214607,193.864639 119.081505,193.559784 120.850548,192.964233 
	C121.956963,192.591736 122.915962,191.781387 123.941116,191.167511 
	C123.023170,190.441559 122.163597,189.188553 121.177353,189.079346 
	C116.485054,188.559692 111.758293,188.351288 106.687950,187.965057 
	C103.631844,186.566284 100.931580,185.234528 98.074646,183.635422 
	C97.258301,182.595169 96.598633,181.822281 96.100670,180.720245 
	C100.073547,172.423874 103.551643,164.272537 107.816544,156.556061 
	C110.521942,151.661209 110.042519,147.267609 108.234245,142.514374 
	C107.658401,141.000702 107.335358,139.390869 107.154541,137.474197 
	C121.280090,137.029083 135.147751,136.934799 149.451538,136.915329 
	C152.632278,136.674057 155.376862,136.357986 158.582184,136.023987 
	C180.970322,135.338425 202.909393,134.922729 224.820633,133.906723 
	C237.542175,133.316833 250.579956,132.878250 260.309326,122.540886 
	C260.341095,122.507149 260.761230,122.838943 261.000000,123.000000 
z"/>
<path fill="#FCEFED" opacity="1.000000" stroke="none" 
	d="
M261.000000,122.539368 
	C260.761230,122.838943 260.341095,122.507149 260.309326,122.540886 
	C250.579956,132.878250 237.542175,133.316833 224.820633,133.906723 
	C202.909393,134.922729 180.970322,135.338425 158.139130,136.010712 
	C154.495346,136.290436 151.755371,136.565475 149.015396,136.840515 
	C135.147751,136.934799 121.280090,137.029083 106.853859,137.319565 
	C101.787613,126.017952 97.057220,114.654984 87.341751,105.961853 
	C86.853897,104.957611 86.539566,104.126808 85.949371,103.612656 
	C77.732689,96.454620 71.144180,88.336342 70.285179,76.876404 
	C73.471893,75.482422 76.307220,74.185173 79.365715,72.927155 
	C79.588882,72.966393 80.022423,72.834465 80.380569,72.902573 
	C82.222504,72.341835 83.706291,71.712982 85.362076,71.011238 
	C86.761642,72.516182 88.187485,74.049370 89.553566,75.518311 
	C88.729584,77.124725 88.073906,78.403008 86.634888,81.208450 
	C91.392487,80.299606 94.983131,79.613693 98.903267,78.864830 
	C99.119331,81.694038 99.241074,83.288193 99.362816,84.882339 
	C99.789139,85.215714 100.215454,85.549080 100.641769,85.882446 
	C102.274872,84.260254 103.907974,82.638062 105.541077,81.015862 
	C105.313507,80.759445 105.085945,80.503029 104.858383,80.246613 
	C106.914078,79.807106 108.969765,79.367599 111.012077,78.930962 
	C112.007942,80.519249 112.840370,81.846863 113.766731,83.324310 
	C115.364815,82.410141 116.627953,81.687576 118.259171,80.972298 
	C119.118065,80.973976 119.608871,80.968376 120.487961,80.989906 
	C127.770569,82.648285 121.303314,86.284187 122.571190,88.816917 
	C120.435547,89.007919 118.820389,89.152374 116.853508,89.328285 
	C117.012772,90.972473 117.146759,92.355743 117.276665,93.696846 
	C119.286575,93.868904 120.903839,94.007347 122.532379,94.146759 
	C123.054535,96.273987 123.518425,98.163849 123.987007,100.072800 
	C122.542709,101.141113 121.246201,102.100113 119.821579,103.153877 
	C120.773239,104.605858 121.573563,105.826927 122.461090,107.181061 
	C123.989212,106.340790 125.378143,105.577049 126.823639,104.782211 
	C128.403656,106.465172 129.746857,107.895889 131.179733,109.422119 
	C130.423523,110.963570 129.741699,112.353378 128.908951,114.050827 
	C130.672699,114.880646 132.071182,115.538612 133.586945,116.251747 
	C135.011627,111.712799 137.620331,111.599846 141.000122,113.613602 
	C141.157532,115.141861 141.322647,116.745033 141.499969,118.466629 
	C143.181503,118.466629 144.581757,118.466629 146.062393,118.466629 
	C146.352585,116.622337 146.601089,115.042931 146.962387,112.746788 
	C150.195129,112.950729 153.202362,113.140442 156.573303,113.353104 
	C158.005219,110.924133 159.881927,107.740662 161.931686,104.263649 
	C165.643356,107.249435 167.941025,107.190819 168.969467,102.952713 
	C167.566986,101.853294 166.302841,100.862328 165.017349,99.854614 
	C165.651855,97.755913 166.211487,95.904869 166.747009,94.133591 
	C168.625824,93.946426 170.230621,93.786560 172.148010,93.595551 
	C172.054474,91.934746 171.976990,90.559143 171.903168,89.248726 
	C169.840820,89.064156 168.229507,88.919952 166.595520,88.773720 
	C166.030655,86.444496 165.532761,84.391487 164.986176,82.137604 
	C166.396881,81.380028 167.694122,80.683380 169.312103,79.989677 
	C170.060562,79.989136 170.488312,79.985657 170.837204,80.369415 
	C171.775269,81.949936 172.792160,83.143242 174.013672,84.576653 
	C175.505692,82.646645 176.498703,81.362114 178.300369,79.031555 
	C179.891129,80.978432 181.038879,82.761536 182.561020,84.127419 
	C183.800201,85.239380 185.487671,85.851761 187.371857,86.907219 
	C187.665512,84.445229 187.836670,83.010323 188.011719,81.542786 
	C190.119965,81.021980 192.023758,80.551697 194.065033,80.047440 
	C195.038559,81.440582 195.959427,82.758369 197.040665,84.305649 
	C198.484573,83.389145 199.697128,82.619484 201.091782,81.734238 
	C200.298340,80.152260 199.597473,78.754837 198.855499,77.275467 
	C201.428574,75.486664 202.675659,71.643616 206.826340,74.076454 
	C207.372696,74.396683 209.226685,72.485947 210.740387,71.421974 
	C208.653458,69.755867 207.395264,68.751373 206.159576,67.764854 
	C206.849609,65.652451 207.447433,63.822315 208.016602,62.079948 
	C209.959641,61.911465 211.563568,61.772385 213.521729,61.602585 
	C213.382553,59.908508 213.270218,58.541180 213.164536,57.254860 
	C211.092651,57.064049 209.483093,56.915821 207.795944,56.760441 
	C207.217987,54.473152 206.699783,52.422318 206.157272,50.275307 
	C207.512360,49.421085 208.765137,48.631355 210.313232,47.955105 
	C211.371994,48.792942 212.135437,49.517303 213.072678,50.542107 
	C216.480560,53.960388 220.214539,54.504665 224.294937,52.873264 
	C229.863266,50.646976 235.402756,48.348560 240.717590,46.177864 
	C239.731995,43.922482 238.357193,41.280193 237.400665,38.494293 
	C234.370865,29.670137 230.984726,28.158995 221.581116,31.902706 
	C220.133041,31.933828 219.077881,31.913063 218.036545,31.928429 
	C218.050354,31.964561 218.114899,31.921904 218.071655,31.548637 
	C218.096558,30.189524 218.164673,29.203672 218.108551,28.150858 
	C217.984299,28.083893 218.220642,28.239372 218.653763,28.196627 
	C223.765762,27.116415 228.444626,26.078949 233.351196,24.994541 
	C233.578873,24.947598 233.999451,24.749390 234.273376,24.704086 
	C234.978363,24.085741 235.409409,23.512695 235.897308,22.932327 
	C235.954178,22.925007 235.923721,22.814445 236.209167,22.587341 
	C236.654297,20.908354 236.813980,19.456469 237.009293,17.661732 
	C237.040756,16.859535 237.036591,16.400187 237.376617,16.064386 
	C239.536957,17.128443 241.550491,17.815756 243.136154,19.051889 
	C251.408569,25.500694 258.057617,34.330505 250.972366,44.650906 
	C248.107178,48.824364 244.636993,52.627953 241.136688,56.309464 
	C235.619370,62.112396 229.615601,67.463066 224.244614,73.391884 
	C219.220551,78.937759 219.446884,85.762825 225.213379,90.414383 
	C229.236038,93.659279 234.433807,95.415596 238.994202,98.032860 
	C246.378067,102.270561 253.669525,106.669281 261.000000,111.000000 
	C261.000000,114.692909 261.000000,118.385818 261.000000,122.539368 
M157.496979,115.485962 
	C157.496979,115.485962 157.521317,115.456673 157.496979,115.485962 
z"/>
<path fill="#000000" opacity="1.000000" stroke="none" 
	d="
M1.000000,102.000000 
	C1.000000,68.378143 1.000000,34.756294 1.000000,1.000000 
	C76.687508,1.000000 152.375092,1.000000 228.829803,1.322961 
	C228.052353,2.429828 226.580017,3.449279 224.948471,3.949612 
	C221.324829,5.060855 217.621399,5.911947 213.645264,6.929992 
	C212.870712,7.305649 212.401413,7.620413 211.968384,7.962935 
	C212.004654,7.990694 211.938324,7.925303 211.597000,7.957702 
	C210.816269,8.642022 210.376862,9.293943 209.962357,9.975321 
	C209.987259,10.004776 209.956146,9.934875 209.701172,10.003613 
	C209.271881,10.365507 209.097534,10.658664 208.959885,10.972164 
	C208.996582,10.992507 208.945312,10.926096 208.693054,11.001639 
	C208.347717,11.382149 208.254623,11.687114 208.091782,12.224520 
	C208.022018,12.456959 207.991074,12.941334 207.608597,12.966804 
	C205.154678,13.716611 203.083221,14.440948 200.621155,15.233389 
	C197.418747,15.868086 194.624832,16.756926 191.790375,16.913931 
	C188.734222,17.083220 187.545242,18.213184 187.950989,21.504944 
	C187.070480,21.883726 186.327026,21.778833 185.762894,22.048729 
	C170.519302,29.341646 154.277649,29.471174 138.336060,26.707600 
	C122.409744,23.946676 106.829613,19.126661 91.155251,14.991234 
	C73.999352,10.464925 56.911430,5.506202 38.875931,7.029090 
	C22.912851,8.376986 15.824610,16.453371 13.928006,31.518274 
	C12.888279,39.776917 17.467157,45.061512 22.674822,50.146770 
	C27.860102,55.210175 29.176285,61.136189 27.003244,67.897491 
	C26.125677,70.627998 24.941835,73.260086 23.938545,75.959946 
	C23.979713,75.982941 23.934433,75.900215 23.611319,76.043198 
	C16.236727,84.864388 9.189000,93.545662 2.100995,102.193932 
	C1.985224,102.335190 1.377925,102.073593 1.000000,102.000000 
z"/>
<path fill="#000000" opacity="1.000000" stroke="none" 
	d="
M17.999998,195.000000 
	C12.359282,195.000000 6.718565,195.000000 1.000000,195.000000 
	C1.000000,168.979156 1.000000,142.958237 1.286054,116.173965 
	C7.205604,122.742020 15.232809,126.394676 23.695223,128.806549 
	C31.680635,131.082489 39.905869,132.718994 48.131882,133.890640 
	C55.987312,135.009476 63.979748,135.166473 71.957855,136.179718 
	C72.542549,139.141357 73.029053,141.682007 73.629120,144.195572 
	C76.337814,155.541550 76.009155,155.954544 65.833786,161.210709 
	C60.060230,164.193085 54.593815,167.770050 48.692730,171.117462 
	C47.362907,171.198425 46.329426,171.241119 44.866638,171.250168 
	C39.423309,171.273895 37.995186,173.017258 39.157532,177.920898 
	C39.980267,181.391815 41.000546,184.815903 41.516792,188.177933 
	C31.594984,187.494843 22.099682,186.998276 12.516861,190.463913 
	C14.730326,192.295074 16.365160,193.647537 17.999998,195.000000 
z"/>
<path fill="#000000" opacity="1.000000" stroke="none" 
	d="
M261.000000,110.531342 
	C253.669525,106.669281 246.378067,102.270561 238.994202,98.032860 
	C234.433807,95.415596 229.236038,93.659279 225.213379,90.414383 
	C219.446884,85.762825 219.220551,78.937759 224.244614,73.391884 
	C229.615601,67.463066 235.619370,62.112396 241.136688,56.309464 
	C244.636993,52.627953 248.107178,48.824364 250.972366,44.650906 
	C258.057617,34.330505 251.408569,25.500694 243.136154,19.051889 
	C241.550491,17.815756 239.536957,17.128443 237.249237,15.715960 
	C235.185089,10.495990 233.592545,5.747995 232.000000,1.000000 
	C241.636154,1.000000 251.272293,1.000000 261.000000,1.000000 
	C261.000000,37.354179 261.000000,73.708435 261.000000,110.531342 
z"/>
<path fill="#FDF0ED" opacity="1.000000" stroke="none" 
	d="
M71.911957,135.746277 
	C63.979748,135.166473 55.987312,135.009476 48.131882,133.890640 
	C39.905869,132.718994 31.680635,131.082489 23.695223,128.806549 
	C15.232809,126.394676 7.205604,122.742020 1.286054,115.705307 
	C1.000000,113.629440 1.000000,111.258888 1.396880,108.443100 
	C5.919785,108.200516 6.666438,105.404022 7.006963,102.186081 
	C7.177093,100.578377 6.925057,98.501945 7.821689,97.468269 
	C11.793777,92.889030 15.735879,88.137428 20.439445,84.390434 
	C23.582026,81.886963 24.296101,79.359398 23.934433,75.900215 
	C23.934433,75.900215 23.979713,75.982941 24.323662,75.983162 
	C29.878700,76.405746 28.011599,81.396904 29.910536,84.413300 
	C29.950382,86.217140 29.922428,87.608612 29.538208,89.051224 
	C27.503347,90.539864 25.824753,91.977371 24.146160,93.414886 
	C25.814148,93.924683 27.482132,94.434479 29.381210,94.951675 
	C29.612301,94.959068 29.999363,95.212074 30.063702,95.569008 
	C32.998547,100.464729 36.637470,96.057953 39.885933,96.492523 
	C40.213333,96.536331 41.057766,92.715302 41.628021,90.738937 
	C41.593784,90.790001 41.613106,90.668564 42.063370,90.748352 
	C42.818264,90.840004 43.122887,90.851852 43.683533,91.054840 
	C47.354839,94.346687 50.416363,98.018463 54.272644,100.407242 
	C59.389111,103.576630 63.955376,107.034424 67.033798,112.658699 
	C65.378723,121.343307 66.138496,129.087723 71.911957,135.746277 
z"/>
<path fill="#FBF1EF" opacity="1.000000" stroke="none" 
	d="
M18.468655,195.000000 
	C16.365160,193.647537 14.730326,192.295074 12.516861,190.463913 
	C22.099682,186.998276 31.594984,187.494843 41.514889,188.564178 
	C44.759914,192.927094 48.223530,190.629272 51.475433,189.879562 
	C51.569622,189.857819 51.254879,188.062363 51.589119,187.049072 
	C63.360432,187.027359 74.673439,187.050522 86.167953,187.399979 
	C91.853363,189.364212 97.306694,191.207748 102.876480,192.577805 
	C107.698265,193.763840 108.471786,192.738510 107.043793,188.032104 
	C111.758293,188.351288 116.485054,188.559692 121.177353,189.079346 
	C122.163597,189.188553 123.023170,190.441559 123.941116,191.167511 
	C122.915962,191.781387 121.956963,192.591736 120.850548,192.964233 
	C119.081505,193.559784 117.214607,193.864639 115.694534,194.646179 
	C83.645775,195.000000 51.291542,195.000000 18.468655,195.000000 
z"/>
<path fill="#F1866F" opacity="1.000000" stroke="none" 
	d="
M231.625000,1.000000 
	C233.592545,5.747995 235.185089,10.495990 236.905029,15.592411 
	C237.036591,16.400187 237.040756,16.859535 236.746414,17.909943 
	C236.273178,19.938818 236.098450,21.376631 235.923721,22.814445 
	C235.923721,22.814445 235.954178,22.925007 235.617020,22.994408 
	C234.853058,23.625668 234.426254,24.187529 233.999451,24.749390 
	C233.999451,24.749390 233.578873,24.947598 232.924347,24.990116 
	C229.552902,25.355417 226.795319,25.489346 224.132217,26.062340 
	C222.099655,26.499666 220.186768,27.493240 218.220642,28.239372 
	C218.220642,28.239372 217.984299,28.083893 217.763275,28.104328 
	C215.700760,28.422636 213.859238,28.720509 212.008667,29.007561 
	C211.999619,28.996744 211.984055,28.973200 211.997040,28.615097 
	C212.891205,26.801748 213.772385,25.346504 214.948166,23.404751 
	C212.763779,20.389093 210.445923,17.189152 208.074463,13.729771 
	C208.010956,13.293999 208.001007,13.117666 207.991074,12.941334 
	C207.991074,12.941334 208.022018,12.456959 208.279694,12.093718 
	C208.765427,11.509047 208.901398,11.240920 208.945312,10.926096 
	C208.945312,10.926096 208.996582,10.992507 209.193069,10.872793 
	C209.578415,10.480343 209.767273,10.207606 209.956146,9.934872 
	C209.956146,9.934875 209.987259,10.004776 210.291397,9.947002 
	C211.043137,9.234588 211.490723,8.579946 211.938324,7.925303 
	C211.938324,7.925303 212.004654,7.990694 212.278671,7.955469 
	C213.018631,7.569861 213.484558,7.219479 213.950500,6.869097 
	C217.621399,5.911947 221.324829,5.060855 224.948471,3.949612 
	C226.580017,3.449279 228.052353,2.429828 229.298462,1.322961 
	C229.750000,1.000000 230.500000,1.000000 231.625000,1.000000 
M217.895996,18.735052 
	C217.815460,18.689346 217.734940,18.643641 217.654404,18.597937 
	C217.766312,18.734495 217.878204,18.871054 218.001373,19.706488 
	C218.334244,20.804300 218.667114,21.902113 218.742935,23.105440 
	C218.828629,23.070316 218.914307,23.035194 219.671082,22.886415 
	C221.475708,20.609818 221.265091,20.116596 217.895996,18.735052 
z"/>
<path fill="#FCEFED" opacity="1.000000" stroke="none" 
	d="
M23.611319,76.043198 
	C24.296101,79.359398 23.582026,81.886963 20.439445,84.390434 
	C15.735879,88.137428 11.793777,92.889030 7.821689,97.468269 
	C6.925057,98.501945 7.177093,100.578377 7.006963,102.186081 
	C6.666438,105.404022 5.919785,108.200516 1.396880,107.998940 
	C1.000000,106.285645 1.000000,104.571281 1.000000,102.428467 
	C1.377925,102.073593 1.985224,102.335190 2.100995,102.193932 
	C9.189000,93.545662 16.236727,84.864388 23.611319,76.043198 
z"/>
<path fill="#3F3C53" opacity="1.000000" stroke="none" 
	d="
M71.957855,136.179718 
	C66.138496,129.087723 65.378723,121.343307 67.449486,112.598671 
	C72.638954,111.415436 77.447144,110.988983 82.094849,109.886192 
	C84.034714,109.425919 85.633263,107.527206 87.387001,106.282532 
	C97.057220,114.654984 101.787613,126.017952 106.595963,137.670395 
	C107.335358,139.390869 107.658401,141.000702 108.234245,142.514374 
	C110.042519,147.267609 110.521942,151.661209 107.816544,156.556061 
	C103.551643,164.272537 100.073547,172.423874 95.820824,180.522552 
	C92.929123,179.451645 90.478973,178.249298 87.875801,176.720795 
	C87.702980,175.491943 87.383919,174.459244 87.710625,173.707047 
	C90.387711,167.543732 93.183357,161.431870 95.946396,155.305923 
	C98.699402,149.202255 94.580086,139.563904 88.007133,137.609283 
	C88.007133,142.946365 87.980118,148.151398 88.013519,153.356064 
	C88.062759,161.029251 85.636711,165.242844 78.493546,167.744400 
	C70.208794,170.645706 62.262527,173.976044 55.479752,179.709198 
	C54.943218,180.162689 53.720444,179.804291 52.651875,179.540222 
	C51.321133,176.531235 50.155102,173.805222 48.989071,171.079224 
	C54.593815,167.770050 60.060230,164.193085 65.833786,161.210709 
	C76.009155,155.954544 76.337814,155.541550 73.629120,144.195572 
	C73.029053,141.682007 72.542549,139.141357 71.957855,136.179718 
z"/>
<path fill="#4A4153" opacity="1.000000" stroke="none" 
	d="
M106.687950,187.965057 
	C108.471786,192.738510 107.698265,193.763840 102.876480,192.577805 
	C97.306694,191.207748 91.853363,189.364212 86.067947,187.051605 
	C86.025398,184.833817 86.264381,183.290665 86.797836,181.895813 
	C90.718292,184.202377 94.344276,186.360687 98.928925,189.089615 
	C98.531410,186.133942 98.381371,185.018356 98.231323,183.902771 
	C100.931580,185.234528 103.631844,186.566284 106.687950,187.965057 
z"/>
<path fill="#EABDC2" opacity="1.000000" stroke="none" 
	d="
M98.074646,183.635422 
	C98.381371,185.018356 98.531410,186.133942 98.928925,189.089615 
	C94.344276,186.360687 90.718292,184.202377 86.748413,181.847290 
	C86.404510,181.650482 86.270485,181.625412 86.266006,181.410294 
	C86.261536,181.195175 85.895149,180.969467 86.001289,180.657959 
	C86.747902,179.246628 87.388367,178.146790 88.028839,177.046951 
	C90.478973,178.249298 92.929123,179.451645 95.659119,180.851685 
	C96.598633,181.822281 97.258301,182.595169 98.074646,183.635422 
z"/>
<path fill="#FEFAF6" opacity="1.000000" stroke="none" 
	d="
M149.451538,136.915314 
	C151.755371,136.565475 154.495346,136.290436 157.678391,136.028656 
	C155.376862,136.357986 152.632278,136.674057 149.451538,136.915314 
z"/>
<path fill="#FCEFED" opacity="1.000000" stroke="none" 
	d="
M29.842735,84.000938 
	C28.011599,81.396904 29.878700,76.405746 24.282494,75.960175 
	C24.941835,73.260086 26.125677,70.627998 27.003244,67.897491 
	C29.176285,61.136189 27.860102,55.210175 22.674822,50.146770 
	C17.467157,45.061512 12.888279,39.776917 13.928006,31.518274 
	C15.824610,16.453371 22.912851,8.376986 38.875931,7.029090 
	C56.911430,5.506202 73.999352,10.464925 91.155251,14.991234 
	C106.829613,19.126661 122.409744,23.946676 138.336060,26.707600 
	C154.277649,29.471174 170.519302,29.341646 185.762894,22.048729 
	C186.327026,21.778833 187.070480,21.883726 188.180298,21.766769 
	C188.749863,24.814888 188.869476,27.910200 188.975784,31.349575 
	C189.620514,32.824413 190.278564,33.955185 190.963593,35.054169 
	C190.990585,35.022373 190.909210,35.040661 190.999084,35.289726 
	C191.373718,35.729752 191.658447,35.920712 191.940659,36.064613 
	C191.938126,36.017563 191.888077,36.097416 192.037964,36.407188 
	C192.515167,37.327366 192.842484,37.937771 192.784866,38.364403 
	C188.260620,38.296993 187.359375,35.540409 187.425674,32.203838 
	C184.663467,31.861799 182.452072,31.574034 182.347031,35.253120 
	C182.320282,36.189373 180.772827,37.598660 179.706863,37.843044 
	C178.648026,38.085789 177.218933,37.297211 176.136627,36.651703 
	C175.395813,36.209873 174.970947,35.238304 174.254852,34.308884 
	C172.847672,35.317055 171.692520,36.144657 170.523712,36.982044 
	C171.258514,38.603024 171.858414,39.926407 172.405319,41.132881 
	C170.084305,44.723392 167.321960,46.321922 163.198944,43.227924 
	C162.869766,43.497589 162.540588,43.767254 162.211411,44.036919 
	C162.475204,45.716663 162.738998,47.396404 163.001190,49.458359 
	C162.332260,52.185760 161.664902,54.530956 160.640991,56.945908 
	C159.558105,57.023159 158.831772,57.030663 157.709717,57.039776 
	C156.562790,58.003952 155.811569,58.966511 155.060364,59.929077 
	C156.101547,60.595398 157.142731,61.261711 158.394119,61.931381 
	C158.604324,61.934738 159.004395,62.064117 159.099091,62.213303 
	C159.462128,62.257038 159.730469,62.151592 160.370819,61.975368 
	C161.494400,61.955742 162.245972,62.006889 163.090744,62.251007 
	C163.349014,62.686432 163.564117,62.870422 163.930405,63.350716 
	C163.785980,65.510040 163.540359,67.314613 162.881027,69.087257 
	C161.638092,69.037796 160.808899,69.020264 159.784882,68.808182 
	C159.022491,68.170349 158.454910,67.727058 157.870453,67.096710 
	C157.572952,66.885567 157.292328,66.861473 156.705399,66.857040 
	C156.196289,66.903770 155.993469,66.930840 155.619675,67.071770 
	C155.245285,67.377640 155.096451,67.605316 154.850800,67.982719 
	C154.699417,68.096764 154.321747,68.129013 153.880875,68.099167 
	C152.238754,68.622536 151.037521,69.175758 149.583206,69.741394 
	C149.180374,69.675682 149.030624,69.597557 148.899841,69.175156 
	C148.156204,68.205582 147.393585,67.580284 146.522598,66.568550 
	C146.492844,65.659523 146.571472,65.136925 146.716492,64.359207 
	C145.518311,64.350594 144.253723,64.597107 142.679657,64.866577 
	C141.760498,66.294075 141.150818,67.698616 140.136963,70.034256 
	C138.860611,69.799286 136.329453,70.094803 135.289978,68.988602 
	C132.883865,66.428032 131.314667,67.541222 129.301514,69.018898 
	C130.035980,70.603539 130.649200,71.926537 131.453705,73.662300 
	C130.663452,74.278351 129.862595,74.861504 129.109802,75.501228 
	C128.371292,76.128830 127.681671,76.813965 127.039436,77.409973 
	C121.560997,74.627502 120.773689,75.059486 120.099686,80.962769 
	C119.608871,80.968376 119.118065,80.973976 118.188126,80.602539 
	C118.132584,77.736443 118.516159,75.247375 118.967346,72.319588 
	C123.390686,74.225922 126.367973,75.060562 127.273331,70.250092 
	C126.072433,69.307083 124.909378,68.393784 123.598785,67.364632 
	C124.226280,65.268044 124.831131,63.247086 125.216019,61.961105 
	C127.685890,61.016590 129.508743,60.319504 131.331589,59.622421 
	C131.344925,59.128201 131.358276,58.633980 131.371628,58.139759 
	C125.050964,58.444519 124.929947,53.913422 124.118492,49.683830 
	C125.359367,48.865044 126.667046,48.002171 127.876343,47.204220 
	C127.079147,41.830166 123.814102,44.085018 121.209045,44.674240 
	C119.792000,43.155727 118.451538,41.719284 117.120064,40.292480 
	C117.903694,38.852482 118.597343,37.577816 119.405319,36.093063 
	C118.054474,35.151119 116.867165,34.323204 115.703156,33.511543 
	C111.062119,38.795937 109.264297,38.448601 105.776779,32.380009 
	C105.133156,31.260057 103.039558,30.973379 101.150925,30.083284 
	C100.990089,32.600220 100.896828,34.059711 100.791618,35.706131 
	C99.082809,36.163250 97.516624,36.582214 95.828545,37.033787 
	C94.861923,35.572205 93.980194,34.238991 92.950043,32.681355 
	C91.457581,33.510006 90.219467,34.197437 88.779831,34.996761 
	C89.589706,36.666939 90.272903,38.075867 91.038071,39.653839 
	C89.511864,40.626762 88.274933,41.415276 87.059052,41.781757 
	C84.557465,37.611450 78.687988,38.335835 76.669914,42.793728 
	C75.512299,45.350853 74.809891,48.114052 73.590988,50.943069 
	C70.376495,55.716869 67.368263,60.270100 64.604156,64.966995 
	C62.414558,68.687645 59.323093,70.603905 54.900200,70.455093 
	C54.212372,69.147110 53.678242,68.103333 53.479889,67.004654 
	C54.570080,65.699081 55.324490,64.448418 56.372284,62.984459 
	C58.547073,58.520748 57.287392,55.212307 52.939102,52.562931 
	C53.232914,48.636040 51.199791,47.188992 48.097389,47.436089 
	C44.220196,47.744900 40.336128,48.316074 36.534546,49.140610 
	C31.362482,50.262394 28.721666,53.965382 29.029957,59.151249 
	C29.383961,65.106087 29.786728,71.058022 30.100929,77.444160 
	C29.969946,79.918381 29.906342,81.959656 29.842735,84.000938 
z"/>
<path fill="#EE6C4E" opacity="1.000000" stroke="none" 
	d="
M55.053902,70.719299 
	C59.323093,70.603905 62.414558,68.687645 64.604156,64.966995 
	C67.368263,60.270100 70.376495,55.716869 73.946167,51.081486 
	C76.747063,51.857471 78.881210,52.653629 80.954376,53.752964 
	C79.611542,55.693794 78.329681,57.331451 77.010796,59.343971 
	C76.973495,60.472404 76.973221,61.225971 76.983398,61.988861 
	C76.993835,61.998188 76.980408,61.982327 76.758186,62.094261 
	C76.267799,62.425919 76.098007,62.705418 76.021042,63.277504 
	C76.015488,63.510311 76.007462,63.975990 75.751755,63.818901 
	C74.665810,63.503399 73.835564,63.344982 73.005325,63.186565 
	C72.998924,64.458771 72.992523,65.730980 72.994812,67.002686 
	C73.003510,67.002190 73.006889,66.984993 72.792419,67.096291 
	C72.311005,67.408020 72.129097,67.667969 71.887062,68.307220 
	C70.965340,70.407745 70.020798,72.139893 69.485664,73.990440 
	C69.231873,74.868088 69.759933,75.971817 69.933792,76.973129 
	C71.144180,88.336342 77.732689,96.454620 85.949371,103.612656 
	C86.539566,104.126808 86.853897,104.957611 87.341751,105.961861 
	C85.633263,107.527206 84.034714,109.425919 82.094849,109.886192 
	C77.447144,110.988983 72.638954,111.415436 67.479858,112.174911 
	C63.955376,107.034424 59.389111,103.576630 54.272644,100.407242 
	C50.416363,98.018463 47.354839,94.346687 43.598679,90.780457 
	C42.912682,89.872932 42.567554,89.430954 42.199936,88.534668 
	C42.629009,83.865974 39.647087,78.804321 45.570824,75.845535 
	C49.610909,75.253685 53.530922,75.116936 55.053902,70.719299 
z"/>
<path fill="#474256" opacity="1.000000" stroke="none" 
	d="
M159.004395,62.064117 
	C159.004395,62.064117 158.604324,61.934738 158.323364,61.528313 
	C158.063431,59.760647 158.084442,58.399403 158.105469,57.038162 
	C158.831772,57.030663 159.558105,57.023159 161.036774,57.016705 
	C165.200989,54.986637 165.744461,51.430531 163.002792,49.076149 
	C162.738998,47.396404 162.475204,45.716663 162.211411,44.036919 
	C162.540588,43.767254 162.869766,43.497589 163.198944,43.227924 
	C167.321960,46.321922 170.084305,44.723392 172.405319,41.132881 
	C171.858414,39.926407 171.258514,38.603024 170.523712,36.982044 
	C171.692520,36.144657 172.847672,35.317055 174.254852,34.308884 
	C174.970947,35.238304 175.395813,36.209873 176.136627,36.651703 
	C177.218933,37.297211 178.648026,38.085789 179.706863,37.843044 
	C180.772827,37.598660 182.320282,36.189373 182.347031,35.253120 
	C182.452072,31.574034 184.663467,31.861799 187.425674,32.203838 
	C187.359375,35.540409 188.260620,38.296993 193.002716,38.494400 
	C194.138916,37.933071 194.672348,37.057968 195.190033,36.144943 
	C195.174286,36.107021 195.103928,36.149364 195.357056,36.066391 
	C195.763733,35.669498 195.917313,35.355576 196.402405,34.968155 
	C197.181747,34.832954 197.629532,34.771248 198.277802,34.850513 
	C198.478271,34.991486 198.958130,35.091377 198.974609,35.053398 
	C198.991074,35.015419 198.919952,35.057808 199.077896,35.319317 
	C199.807617,35.764225 200.379395,35.947624 200.940674,36.091110 
	C200.930176,36.051193 200.864243,36.100876 200.889069,36.415359 
	C200.907623,37.149189 200.901352,37.568535 200.625183,38.184372 
	C197.012604,42.693054 202.064255,43.286377 203.400345,45.832317 
	C204.881119,44.113113 206.146576,42.643887 207.506836,41.483253 
	C208.407059,43.808441 209.212494,45.825039 210.017914,47.841629 
	C208.765137,48.631355 207.512360,49.421085 206.157272,50.275307 
	C206.699783,52.422318 207.217987,54.473152 207.795944,56.760441 
	C209.483093,56.915821 211.092651,57.064049 213.164536,57.254860 
	C213.270218,58.541180 213.382553,59.908508 213.521729,61.602585 
	C211.563568,61.772385 209.959641,61.911465 208.016602,62.079948 
	C207.447433,63.822315 206.849609,65.652451 206.159576,67.764854 
	C207.395264,68.751373 208.653458,69.755867 210.740387,71.421974 
	C209.226685,72.485947 207.372696,74.396683 206.826340,74.076454 
	C202.675659,71.643616 201.428574,75.486664 198.855499,77.275467 
	C199.597473,78.754837 200.298340,80.152260 201.091782,81.734238 
	C199.697128,82.619484 198.484573,83.389145 197.040665,84.305649 
	C195.959427,82.758369 195.038559,81.440582 194.065033,80.047440 
	C192.023758,80.551697 190.119965,81.021980 188.011719,81.542786 
	C187.836670,83.010323 187.665512,84.445229 187.371857,86.907219 
	C185.487671,85.851761 183.800201,85.239380 182.561020,84.127419 
	C181.038879,82.761536 179.891129,80.978432 178.300369,79.031555 
	C176.498703,81.362114 175.505692,82.646645 174.013672,84.576653 
	C172.792160,83.143242 171.775269,81.949936 171.084625,80.174286 
	C172.397385,76.835419 169.771530,72.852623 167.150803,73.258247 
	C166.849518,73.304878 166.710144,74.397682 166.512329,75.001083 
	C166.528946,74.996735 166.562805,75.002518 166.294830,74.605812 
	C164.753098,73.812416 162.798523,73.753349 162.389221,72.927971 
	C161.943466,72.029114 162.931702,70.419136 163.294754,69.119179 
	C163.540359,67.314613 163.785980,65.510040 163.947998,63.080647 
	C163.575455,62.323227 163.286499,62.190632 162.997543,62.058037 
	C162.245972,62.006889 161.494400,61.955742 160.120911,61.907803 
	C159.334122,61.962048 159.169266,62.013081 159.004395,62.064117 
M174.849716,45.272919 
	C173.809341,46.342854 172.654175,47.324085 171.747604,48.497395 
	C166.572403,55.195267 166.731552,64.083229 172.074829,70.574959 
	C177.021240,76.584511 185.664139,78.884438 192.072266,75.896385 
	C202.305862,71.124550 206.318085,60.541466 201.470154,51.119148 
	C196.683441,41.815819 186.425034,39.636711 174.849716,45.272919 
z"/>
<path fill="#464256" opacity="1.000000" stroke="none" 
	d="
M166.562805,75.002518 
	C166.562805,75.002518 166.528946,74.996735 166.668243,75.320213 
	C167.535477,77.091370 168.263428,78.539047 168.991364,79.986740 
	C167.694122,80.683380 166.396881,81.380028 164.986176,82.137604 
	C165.532761,84.391487 166.030655,86.444496 166.595520,88.773720 
	C168.229507,88.919952 169.840820,89.064156 171.903168,89.248726 
	C171.976990,90.559143 172.054474,91.934746 172.148010,93.595551 
	C170.230621,93.786560 168.625824,93.946426 166.747009,94.133591 
	C166.211487,95.904869 165.651855,97.755913 165.017349,99.854614 
	C166.302841,100.862328 167.566986,101.853294 168.969467,102.952713 
	C167.941025,107.190819 165.643356,107.249435 161.931686,104.263649 
	C159.881927,107.740662 158.005219,110.924133 156.573303,113.353104 
	C153.202362,113.140442 150.195129,112.950729 146.962387,112.746788 
	C146.601089,115.042931 146.352585,116.622337 146.062393,118.466629 
	C144.581757,118.466629 143.181503,118.466629 141.499969,118.466629 
	C141.322647,116.745033 141.157532,115.141861 141.000122,113.613602 
	C137.620331,111.599846 135.011627,111.712799 133.586945,116.251747 
	C132.071182,115.538612 130.672699,114.880646 128.908951,114.050827 
	C129.741699,112.353378 130.423523,110.963570 131.179733,109.422119 
	C129.746857,107.895889 128.403656,106.465172 126.823639,104.782211 
	C125.378143,105.577049 123.989212,106.340790 122.461090,107.181061 
	C121.573563,105.826927 120.773239,104.605858 119.821579,103.153877 
	C121.246201,102.100113 122.542709,101.141113 123.987007,100.072800 
	C123.518425,98.163849 123.054535,96.273987 122.532379,94.146759 
	C120.903839,94.007347 119.286575,93.868904 117.276665,93.696846 
	C117.146759,92.355743 117.012772,90.972473 116.853508,89.328285 
	C118.820389,89.152374 120.435547,89.007919 122.571190,88.816917 
	C121.303314,86.284187 127.770569,82.648285 120.487961,80.989899 
	C120.773689,75.059486 121.560997,74.627502 127.039436,77.409973 
	C127.681671,76.813965 128.371292,76.128830 129.109802,75.501228 
	C129.862595,74.861504 130.663452,74.278351 131.453705,73.662300 
	C130.649200,71.926537 130.035980,70.603539 129.301514,69.018898 
	C131.314667,67.541222 132.883865,66.428032 135.289978,68.988602 
	C136.329453,70.094803 138.860611,69.799286 140.136963,70.034256 
	C141.150818,67.698616 141.760498,66.294075 143.139862,64.941376 
	C144.823059,64.866928 145.736588,64.740631 146.650101,64.614334 
	C146.571472,65.136925 146.492844,65.659523 146.403168,66.905609 
	C147.221710,68.259216 148.051285,68.889320 148.880859,69.519424 
	C149.030624,69.597557 149.180374,69.675682 149.859756,69.856079 
	C152.575790,71.230820 153.785660,70.404114 154.321747,68.129013 
	C154.321747,68.129013 154.699417,68.096764 155.115265,67.981995 
	C155.617615,67.564117 155.704132,67.261009 155.790649,66.957901 
	C155.993469,66.930840 156.196289,66.903770 156.899597,67.017136 
	C157.562500,67.199631 157.724915,67.241699 157.887314,67.283760 
	C158.454910,67.727058 159.022491,68.170349 159.659271,69.138535 
	C159.019089,70.898819 158.309708,72.134216 157.680481,73.230011 
	C160.432709,76.355476 162.927124,79.102188 166.562805,75.002518 
M161.788208,95.724350 
	C161.913925,94.235634 162.141296,92.747383 162.148209,91.258118 
	C162.182953,83.780502 157.837708,77.512199 150.769730,74.742462 
	C144.078949,72.120544 135.997650,74.126770 131.268768,79.583694 
	C126.483063,85.106194 125.507759,93.233360 128.868530,99.588135 
	C132.744263,106.916634 139.559296,110.017960 147.036224,109.185196 
	C153.981735,108.411613 159.198044,103.597588 161.788208,95.724350 
z"/>
<path fill="#EF866F" opacity="1.000000" stroke="none" 
	d="
M198.077332,34.709541 
	C197.629532,34.771248 197.181747,34.832954 196.164017,35.074173 
	C195.430710,35.552242 195.267319,35.850803 195.103928,36.149368 
	C195.103928,36.149364 195.174286,36.107021 194.775955,36.084797 
	C193.547775,36.074188 192.717926,36.085804 191.888077,36.097416 
	C191.888077,36.097416 191.938126,36.017563 191.847137,35.819229 
	C191.473831,35.427479 191.191513,35.234070 190.909210,35.040661 
	C190.909210,35.040661 190.990585,35.022373 190.956635,34.714577 
	C190.278152,33.273026 189.633621,32.139267 188.989105,31.005510 
	C188.869476,27.910200 188.749863,24.814888 188.400925,21.457752 
	C187.545242,18.213184 188.734222,17.083220 191.790375,16.913931 
	C194.624832,16.756926 197.418747,15.868086 200.822418,15.508284 
	C205.044067,16.863356 207.142578,19.002865 207.358398,23.129696 
	C207.420273,24.312931 209.570694,25.386942 210.842560,26.863400 
	C211.275772,27.801577 211.629913,28.387386 211.984055,28.973198 
	C211.984055,28.973200 211.999619,28.996744 211.973892,29.332394 
	C211.152908,34.118515 213.348694,33.439217 215.988434,32.008621 
	C215.999435,31.999846 216.016907,31.977823 216.366516,31.979288 
	C217.182388,31.961136 217.648636,31.941521 218.114899,31.921906 
	C218.114899,31.921904 218.050354,31.964561 218.236221,32.208065 
	C219.606064,32.251320 220.790054,32.051071 221.974030,31.850819 
	C230.984726,28.158995 234.370865,29.670137 237.400665,38.494293 
	C238.357193,41.280193 239.731995,43.922482 240.717590,46.177864 
	C235.402756,48.348560 229.863266,50.646976 224.294937,52.873264 
	C220.214539,54.504665 216.480560,53.960388 213.102173,50.115322 
	C212.310944,43.975620 210.954987,38.855350 207.547333,35.038948 
	C204.942764,35.452808 202.903503,35.776844 200.864243,36.100876 
	C200.864243,36.100876 200.930176,36.051193 200.793243,35.814510 
	C200.077515,35.404488 199.498734,35.231148 198.919952,35.057808 
	C198.919952,35.057808 198.991074,35.015419 198.934845,34.885109 
	C198.611526,34.739712 198.344437,34.724625 198.077332,34.709541 
M222.515152,37.339512 
	C222.343033,37.892551 222.170898,38.445587 221.430557,39.423092 
	C220.412338,41.388405 219.394119,43.353718 218.375885,45.319031 
	C220.080399,44.584267 220.594513,42.598293 221.588562,42.318703 
	C222.803726,41.976925 224.421387,43.066223 225.865005,43.536682 
	C226.411652,43.008476 226.958313,42.480270 227.504974,41.952068 
	C225.670380,40.968327 223.835800,39.984589 222.484787,38.660233 
	C222.656799,38.107018 222.828812,37.553806 223.395615,36.756081 
	C223.381912,36.419537 223.368210,36.082989 223.354507,35.746445 
	C223.235931,36.163971 223.117355,36.581497 222.515152,37.339512 
M224.421890,33.486103 
	C224.421890,33.486103 224.522049,33.427883 224.421890,33.486103 
M226.485397,46.578079 
	C226.485397,46.578079 226.428207,46.477325 226.485397,46.578079 
z"/>
<path fill="#454053" opacity="1.000000" stroke="none" 
	d="
M77.047821,58.969105 
	C78.329681,57.331451 79.611542,55.693794 81.230804,53.469482 
	C83.391479,49.323147 85.214737,45.763466 87.038002,42.203789 
	C88.274933,41.415276 89.511864,40.626762 91.038071,39.653839 
	C90.272903,38.075867 89.589706,36.666939 88.779831,34.996761 
	C90.219467,34.197437 91.457581,33.510006 92.950043,32.681355 
	C93.980194,34.238991 94.861923,35.572205 95.828545,37.033787 
	C97.516624,36.582214 99.082809,36.163250 100.791618,35.706131 
	C100.896828,34.059711 100.990089,32.600220 101.150925,30.083284 
	C103.039558,30.973379 105.133156,31.260057 105.776779,32.380009 
	C109.264297,38.448601 111.062119,38.795937 115.703156,33.511543 
	C116.867165,34.323204 118.054474,35.151119 119.405319,36.093063 
	C118.597343,37.577816 117.903694,38.852482 117.120064,40.292480 
	C118.451538,41.719284 119.792000,43.155727 121.209045,44.674240 
	C123.814102,44.085018 127.079147,41.830166 127.876343,47.204220 
	C126.667046,48.002171 125.359367,48.865044 124.118492,49.683830 
	C124.929947,53.913422 125.050964,58.444519 131.371628,58.139759 
	C131.358276,58.633980 131.344925,59.128201 131.331589,59.622421 
	C129.508743,60.319504 127.685890,61.016590 125.216019,61.961105 
	C124.831131,63.247086 124.226280,65.268044 123.598785,67.364632 
	C124.909378,68.393784 126.072433,69.307083 127.273331,70.250092 
	C126.367973,75.060562 123.390686,74.225922 118.967346,72.319588 
	C118.516159,75.247375 118.132584,77.736443 117.820053,80.595261 
	C116.627953,81.687576 115.364815,82.410141 113.766731,83.324310 
	C112.840370,81.846863 112.007942,80.519249 111.012077,78.930962 
	C108.969765,79.367599 106.914078,79.807106 104.858383,80.246613 
	C105.085945,80.503029 105.313507,80.759445 105.541077,81.015862 
	C103.907974,82.638062 102.274872,84.260254 100.641769,85.882446 
	C100.215454,85.549080 99.789139,85.215714 99.362816,84.882339 
	C99.241074,83.288193 99.119331,81.694038 98.903267,78.864830 
	C94.983131,79.613693 91.392487,80.299606 86.634888,81.208450 
	C88.073906,78.403008 88.729584,77.124725 89.553566,75.518311 
	C88.187485,74.049370 86.761642,72.516182 85.362076,71.011238 
	C83.706291,71.712982 82.222504,72.341835 80.377045,72.544403 
	C80.675117,70.453697 81.334869,68.789276 82.230530,66.990616 
	C82.678955,66.569862 82.891472,66.283356 83.333778,65.774902 
	C83.046211,64.335289 82.528862,63.117630 81.799438,61.835922 
	C81.587364,61.771873 81.168533,61.627296 81.178070,61.468376 
	C81.187607,61.309452 81.071754,61.012852 81.005745,60.661171 
	C79.642433,59.862698 78.345123,59.415901 77.047821,58.969105 
M93.136909,72.505898 
	C97.916542,75.648880 102.707146,77.105576 108.610443,75.024483 
	C117.813759,71.780037 123.300758,61.929886 120.295311,52.729965 
	C117.875954,45.324139 111.545952,40.367699 104.075233,40.029514 
	C96.837029,39.701859 89.730003,44.423878 86.911324,51.433487 
	C83.966949,58.755676 85.933929,65.889633 93.136909,72.505898 
z"/>
<path fill="#D76045" opacity="1.000000" stroke="none" 
	d="
M81.071754,61.012848 
	C81.071754,61.012852 81.187607,61.309452 81.118057,61.914406 
	C81.005234,63.977139 80.961960,65.434914 80.750908,66.968948 
	C80.583130,67.045197 80.218239,67.097290 79.885483,67.094826 
	C79.057274,67.691002 78.561821,68.289650 77.868164,69.075928 
	C78.160812,70.471687 78.651680,71.679802 79.142548,72.887924 
	C76.307220,74.185173 73.471893,75.482422 70.285179,76.876404 
	C69.759933,75.971817 69.231873,74.868088 69.485664,73.990440 
	C70.020798,72.139893 70.965340,70.407745 72.098007,68.193077 
	C72.717194,67.557388 72.901451,67.299339 73.006889,66.984993 
	C73.006889,66.984993 73.003510,67.002190 73.336349,66.965263 
	C74.448616,65.944221 75.228043,64.960106 76.007462,63.975990 
	C76.007462,63.975990 76.015488,63.510311 76.227814,63.146797 
	C76.702057,62.571495 76.882149,62.304508 76.980408,61.982327 
	C76.980408,61.982327 76.993835,61.998188 77.312737,61.854691 
	C78.778343,61.478409 79.925049,61.245628 81.071754,61.012848 
z"/>
<path fill="#DD8B7E" opacity="1.000000" stroke="none" 
	d="
M200.889069,36.415359 
	C202.903503,35.776844 204.942764,35.452808 207.547333,35.038948 
	C210.954987,38.855350 212.310944,43.975620 212.928375,49.814884 
	C212.135437,49.517303 211.371994,48.792942 210.313232,47.955109 
	C209.212494,45.825039 208.407059,43.808441 207.406937,41.066696 
	C206.380646,36.137268 202.997696,38.780743 200.895081,37.987881 
	C200.901352,37.568535 200.907623,37.149189 200.889069,36.415359 
z"/>
<path fill="#EFE7EA" opacity="1.000000" stroke="none" 
	d="
M169.312103,79.989670 
	C168.263428,78.539047 167.535477,77.091370 166.651611,75.324562 
	C166.710144,74.397682 166.849518,73.304878 167.150803,73.258247 
	C169.771530,72.852623 172.397385,76.835419 171.163483,79.787064 
	C170.488312,79.985657 170.060562,79.989136 169.312103,79.989670 
z"/>
<path fill="#E88670" opacity="1.000000" stroke="none" 
	d="
M218.653763,28.196627 
	C220.186768,27.493240 222.099655,26.499666 224.132217,26.062340 
	C226.795319,25.489346 229.552902,25.355417 232.696671,25.037060 
	C228.444626,26.078949 223.765762,27.116415 218.653763,28.196627 
z"/>
<path fill="#E88670" opacity="1.000000" stroke="none" 
	d="
M218.071655,31.548639 
	C217.648636,31.941521 217.182388,31.961136 216.307281,31.852406 
	C215.815216,31.679832 215.731995,31.635605 215.648788,31.591377 
	C215.758331,31.733383 215.867874,31.875391 215.977417,32.017399 
	C213.348694,33.439217 211.152908,34.118515 211.982941,29.343210 
	C213.859238,28.720509 215.700760,28.422636 217.887527,28.171295 
	C218.164673,29.203672 218.096558,30.189524 218.071655,31.548639 
z"/>
<path fill="#503C4D" opacity="1.000000" stroke="none" 
	d="
M79.365723,72.927155 
	C78.651680,71.679802 78.160812,70.471687 78.144470,69.006577 
	C79.152077,68.198822 79.685158,67.648056 80.218239,67.097290 
	C80.218239,67.097290 80.583130,67.045197 81.021706,67.020721 
	C81.638397,67.039108 81.816513,67.081978 81.994629,67.124855 
	C81.334869,68.789276 80.675117,70.453697 80.018890,72.476288 
	C80.022423,72.834465 79.588882,72.966393 79.365723,72.927155 
z"/>
<path fill="#E88670" opacity="1.000000" stroke="none" 
	d="
M236.209167,22.587341 
	C236.098450,21.376631 236.273178,19.938818 236.710785,18.252792 
	C236.813980,19.456469 236.654297,20.908354 236.209167,22.587341 
z"/>
<path fill="#E88670" opacity="1.000000" stroke="none" 
	d="
M221.581116,31.902708 
	C220.790054,32.051071 219.606064,32.251320 218.222412,32.171932 
	C219.077881,31.913063 220.133041,31.933828 221.581116,31.902708 
z"/>
<path fill="#E88670" opacity="1.000000" stroke="none" 
	d="
M234.273376,24.704086 
	C234.426254,24.187529 234.853058,23.625668 235.560150,23.001728 
	C235.409409,23.512695 234.978363,24.085741 234.273376,24.704086 
z"/>
<path fill="#464256" opacity="1.000000" stroke="none" 
	d="
M157.509155,115.471313 
	C157.521317,115.456673 157.496979,115.485962 157.509155,115.471313 
z"/>
<path fill="#FDE4D8" opacity="1.000000" stroke="none" 
	d="
M210.763489,26.511032 
	C209.570694,25.386942 207.420273,24.312931 207.358398,23.129696 
	C207.142578,19.002865 205.044067,16.863356 201.213043,15.440182 
	C203.083221,14.440948 205.154678,13.716611 207.608597,12.966804 
	C208.001007,13.117666 208.010956,13.293999 208.015625,14.117363 
	C208.928070,18.679939 209.845779,22.595486 210.763489,26.511032 
z"/>
<path fill="#E88670" opacity="1.000000" stroke="none" 
	d="
M211.597000,7.957703 
	C211.490723,8.579946 211.043137,9.234588 210.266495,9.917547 
	C210.376862,9.293943 210.816269,8.642022 211.597000,7.957703 
z"/>
<path fill="#E88670" opacity="1.000000" stroke="none" 
	d="
M213.645264,6.929991 
	C213.484558,7.219479 213.018631,7.569861 212.242401,7.927710 
	C212.401413,7.620413 212.870712,7.305649 213.645264,6.929991 
z"/>
<path fill="#E88670" opacity="1.000000" stroke="none" 
	d="
M208.693054,11.001639 
	C208.901398,11.240920 208.765427,11.509047 208.349457,11.861278 
	C208.254623,11.687114 208.347717,11.382149 208.693054,11.001639 
z"/>
<path fill="#E88670" opacity="1.000000" stroke="none" 
	d="
M209.701172,10.003611 
	C209.767273,10.207606 209.578415,10.480343 209.156372,10.852449 
	C209.097534,10.658664 209.271881,10.365507 209.701172,10.003611 
z"/>
<path fill="#3E394C" opacity="1.000000" stroke="none" 
	d="
M51.130814,187.093933 
	C51.254879,188.062363 51.569622,189.857819 51.475433,189.879562 
	C48.223530,190.629272 44.759914,192.927094 41.930740,188.647141 
	C41.000546,184.815903 39.980267,181.391815 39.157532,177.920898 
	C37.995186,173.017258 39.423309,171.273895 44.784752,171.641418 
	C44.369827,176.962265 43.607483,181.858215 42.608707,188.272537 
	C45.712547,186.256500 47.381374,185.172546 49.148697,184.389648 
	C49.875065,185.491776 50.502937,186.292847 51.130814,187.093933 
z"/>
<path fill="#E5BAC1" opacity="1.000000" stroke="none" 
	d="
M49.050198,184.088593 
	C47.381374,185.172546 45.712547,186.256500 42.608707,188.272537 
	C43.607483,181.858215 44.369827,176.962265 45.214058,171.675079 
	C46.329426,171.241119 47.362907,171.198425 48.692730,171.117462 
	C50.155102,173.805222 51.321133,176.531235 52.307121,179.609253 
	C51.101456,181.337051 50.075825,182.712830 49.050198,184.088593 
z"/>
<path fill="#423E55" opacity="1.000000" stroke="none" 
	d="
M45.195988,75.847763 
	C39.647087,78.804321 42.629009,83.865974 42.067097,88.805702 
	C41.842205,89.910210 41.727654,90.289391 41.613106,90.668564 
	C41.613106,90.668564 41.593784,90.790001 41.335957,90.954636 
	C39.037006,96.954758 33.890224,94.383606 29.999363,95.212074 
	C29.999363,95.212074 29.612301,94.959068 29.404472,94.581696 
	C29.605673,92.795891 30.014702,91.387459 30.774008,89.835190 
	C32.013481,85.373589 33.566292,81.005783 30.168310,77.011223 
	C29.786728,71.058022 29.383961,65.106087 29.029957,59.151249 
	C28.721666,53.965382 31.362482,50.262394 36.534546,49.140610 
	C40.336128,48.316074 44.220196,47.744900 48.097389,47.436089 
	C51.199791,47.188992 53.232914,48.636040 52.625473,52.755653 
	C51.545891,56.106491 50.043068,58.903244 50.185001,61.613880 
	C50.477776,67.205238 49.585464,72.049843 45.195988,75.847763 
z"/>
<path fill="#FCEFED" opacity="1.000000" stroke="none" 
	d="
M30.063702,95.569008 
	C33.890224,94.383606 39.037006,96.954758 41.370193,90.903564 
	C41.057766,92.715302 40.213333,96.536331 39.885933,96.492523 
	C36.637470,96.057953 32.998547,100.464729 30.063702,95.569008 
z"/>
<path fill="#FCEFED" opacity="1.000000" stroke="none" 
	d="
M30.423729,89.979019 
	C30.014702,91.387459 29.605673,92.795891 29.173382,94.574303 
	C27.482132,94.434479 25.814148,93.924683 24.146160,93.414886 
	C25.824753,91.977371 27.503347,90.539864 29.686012,89.287582 
	C30.267963,89.641548 30.345846,89.810280 30.423729,89.979019 
z"/>
<path fill="#39364A" opacity="1.000000" stroke="none" 
	d="
M30.774010,89.835190 
	C30.345846,89.810280 30.267963,89.641548 30.042278,89.236450 
	C29.922428,87.608612 29.950382,86.217140 29.910536,84.413300 
	C29.906342,81.959656 29.969946,79.918381 30.100929,77.444160 
	C33.566292,81.005783 32.013481,85.373589 30.774010,89.835190 
z"/>
<path fill="#FCEFED" opacity="1.000000" stroke="none" 
	d="
M42.063370,90.748352 
	C41.727654,90.289391 41.842205,89.910210 42.089592,89.260002 
	C42.567554,89.430954 42.912682,89.872932 43.342655,90.589310 
	C43.122887,90.851852 42.818264,90.840004 42.063370,90.748352 
z"/>
<path fill="#000000" opacity="1.000000" stroke="none" 
	d="
M49.148697,184.389648 
	C50.075825,182.712830 51.101456,181.337051 52.471832,179.892242 
	C53.720444,179.804291 54.943218,180.162689 55.479752,179.709198 
	C62.262527,173.976044 70.208794,170.645706 78.493546,167.744400 
	C85.636711,165.242844 88.062759,161.029251 88.013519,153.356064 
	C87.980118,148.151398 88.007133,142.946365 88.007133,137.609283 
	C94.580086,139.563904 98.699402,149.202255 95.946396,155.305923 
	C93.183357,161.431870 90.387711,167.543732 87.710625,173.707047 
	C87.383919,174.459244 87.702980,175.491943 87.875809,176.720795 
	C87.388367,178.146790 86.747902,179.246628 85.777527,180.767960 
	C85.721909,181.334793 85.996193,181.480103 86.270485,181.625412 
	C86.270485,181.625412 86.404510,181.650482 86.453934,181.699005 
	C86.264381,183.290665 86.025398,184.833817 85.886429,186.725327 
	C74.673439,187.050522 63.360432,187.027359 51.589119,187.049072 
	C50.502937,186.292847 49.875065,185.491776 49.148697,184.389648 
z"/>
<path fill="#E88670" opacity="1.000000" stroke="none" 
	d="
M210.842560,26.863400 
	C209.845779,22.595486 208.928070,18.679939 208.069214,14.376802 
	C210.445923,17.189152 212.763779,20.389093 214.948166,23.404751 
	C213.772385,25.346504 212.891205,26.801748 211.997040,28.615095 
	C211.629913,28.387386 211.275772,27.801577 210.842560,26.863400 
z"/>
<path fill="#E88670" opacity="1.000000" stroke="none" 
	d="
M219.000000,22.999924 
	C218.667114,21.902113 218.334244,20.804300 218.000671,19.353256 
	C217.999985,19.000025 218.007401,18.990295 218.007401,18.990295 
	C221.265091,20.116596 221.475708,20.609818 219.335541,22.943207 
	C219.000000,23.000000 219.000000,22.999924 219.000000,22.999924 
z"/>
<path fill="#E88670" opacity="1.000000" stroke="none" 
	d="
M219.000000,23.000036 
	C218.914307,23.035194 218.828629,23.070316 218.871460,23.052681 
	C219.000000,22.999924 219.000000,23.000000 219.000000,23.000036 
z"/>
<path fill="#E88670" opacity="1.000000" stroke="none" 
	d="
M217.995056,19.003819 
	C217.878204,18.871054 217.766312,18.734495 217.654404,18.597935 
	C217.734940,18.643641 217.815460,18.689346 217.951691,18.862675 
	C218.007401,18.990295 217.999985,19.000025 217.995056,19.003819 
z"/>
<path fill="#4A4153" opacity="1.000000" stroke="none" 
	d="
M86.266006,181.410294 
	C85.996193,181.480103 85.721909,181.334793 85.671387,181.079468 
	C85.895149,180.969467 86.261536,181.195175 86.266006,181.410294 
z"/>
<path fill="#EEB9BB" opacity="1.000000" stroke="none" 
	d="
M87.059052,41.781757 
	C85.214737,45.763466 83.391479,49.323147 81.291786,53.166306 
	C78.881210,52.653629 76.747063,51.857471 74.257736,50.922897 
	C74.809891,48.114052 75.512299,45.350853 76.669914,42.793728 
	C78.687988,38.335835 84.557465,37.611450 87.059052,41.781757 
z"/>
<path fill="#EBBABB" opacity="1.000000" stroke="none" 
	d="
M45.570824,75.845535 
	C49.585464,72.049843 50.477776,67.205238 50.185001,61.613880 
	C50.043068,58.903244 51.545891,56.106491 52.617702,53.155998 
	C57.287392,55.212307 58.547073,58.520748 56.346146,62.551117 
	C55.411659,60.204556 54.796700,58.078041 54.181744,55.951527 
	C53.338730,56.150902 52.495716,56.350273 51.652702,56.549644 
	C52.149837,60.052948 52.646973,63.556252 53.144112,67.059555 
	C53.678242,68.103333 54.212372,69.147110 54.900200,70.455093 
	C53.530922,75.116936 49.610909,75.253685 45.570824,75.845535 
z"/>
<path fill="#FABFC2" opacity="1.000000" stroke="none" 
	d="
M53.479889,67.004654 
	C52.646973,63.556252 52.149837,60.052948 51.652702,56.549644 
	C52.495716,56.350273 53.338730,56.150902 54.181744,55.951527 
	C54.796700,58.078041 55.411659,60.204556 56.052757,62.764412 
	C55.324490,64.448418 54.570080,65.699081 53.479889,67.004654 
z"/>
<path fill="#EFE7EA" opacity="1.000000" stroke="none" 
	d="
M166.294830,74.605812 
	C162.927124,79.102188 160.432709,76.355476 157.680481,73.230011 
	C158.309708,72.134216 159.019089,70.898819 159.854065,69.333069 
	C160.808899,69.020264 161.638092,69.037796 162.881027,69.087257 
	C162.931702,70.419136 161.943466,72.029114 162.389221,72.927971 
	C162.798523,73.753349 164.753098,73.812416 166.294830,74.605812 
z"/>
<path fill="#F9EFF3" opacity="1.000000" stroke="none" 
	d="
M163.001190,49.458359 
	C165.744461,51.430531 165.200989,54.986637 161.393341,56.946953 
	C161.664902,54.530956 162.332260,52.185760 163.001190,49.458359 
z"/>
<path fill="#F9EFF3" opacity="1.000000" stroke="none" 
	d="
M157.709732,57.039776 
	C158.084442,58.399403 158.063431,59.760647 158.113159,61.524956 
	C157.142731,61.261711 156.101547,60.595398 155.060364,59.929077 
	C155.811569,58.966511 156.562790,58.003952 157.709732,57.039776 
z"/>
<path fill="#EFE7EA" opacity="1.000000" stroke="none" 
	d="
M153.880875,68.099167 
	C153.785660,70.404114 152.575790,71.230820 150.112823,69.843666 
	C151.037521,69.175758 152.238754,68.622536 153.880875,68.099167 
z"/>
<path fill="#EFE7EA" opacity="1.000000" stroke="none" 
	d="
M146.716492,64.359207 
	C145.736588,64.740631 144.823059,64.866928 143.449341,64.918427 
	C144.253723,64.597107 145.518311,64.350594 146.716492,64.359207 
z"/>
<path fill="#DD8B7E" opacity="1.000000" stroke="none" 
	d="
M192.037964,36.407188 
	C192.717926,36.085804 193.547775,36.074188 194.791687,36.122719 
	C194.672348,37.057968 194.138916,37.933071 193.387650,38.678177 
	C192.842484,37.937771 192.515167,37.327366 192.037964,36.407188 
z"/>
<path fill="#EFE7EA" opacity="1.000000" stroke="none" 
	d="
M148.899841,69.175156 
	C148.051285,68.889320 147.221710,68.259216 146.511566,67.292046 
	C147.393585,67.580284 148.156204,68.205582 148.899841,69.175156 
z"/>
<path fill="#DD8B7E" opacity="1.000000" stroke="none" 
	d="
M188.975769,31.349575 
	C189.633621,32.139267 190.278152,33.273026 190.929657,34.746372 
	C190.278564,33.955185 189.620514,32.824413 188.975769,31.349575 
z"/>
<path fill="#DD8B7E" opacity="1.000000" stroke="none" 
	d="
M190.999084,35.289726 
	C191.191513,35.234070 191.473831,35.427479 191.849670,35.866280 
	C191.658447,35.920712 191.373718,35.729752 190.999084,35.289726 
z"/>
<path fill="#EFE7EA" opacity="1.000000" stroke="none" 
	d="
M157.870453,67.096710 
	C157.724915,67.241699 157.562500,67.199631 157.205887,66.997467 
	C157.292328,66.861473 157.572952,66.885567 157.870453,67.096710 
z"/>
<path fill="#EFE7EA" opacity="1.000000" stroke="none" 
	d="
M163.090744,62.251007 
	C163.286499,62.190632 163.575455,62.323227 163.846817,62.725883 
	C163.564117,62.870422 163.349014,62.686432 163.090744,62.251007 
z"/>
<path fill="#EFE7EA" opacity="1.000000" stroke="none" 
	d="
M155.619675,67.071770 
	C155.704132,67.261009 155.617615,67.564117 155.266647,67.867950 
	C155.096451,67.605316 155.245285,67.377640 155.619675,67.071770 
z"/>
<path fill="#EFE7EA" opacity="1.000000" stroke="none" 
	d="
M159.099091,62.213303 
	C159.169266,62.013081 159.334122,61.962048 159.748886,61.978580 
	C159.730469,62.151592 159.462128,62.257038 159.099091,62.213303 
z"/>
<path fill="#BF6455" opacity="1.000000" stroke="none" 
	d="
M75.751755,63.818901 
	C75.228043,64.960106 74.448616,65.944221 73.327660,66.965759 
	C72.992523,65.730980 72.998924,64.458771 73.005325,63.186565 
	C73.835564,63.344982 74.665810,63.503399 75.751755,63.818901 
z"/>
<path fill="#BF6455" opacity="1.000000" stroke="none" 
	d="
M81.005745,60.661171 
	C79.925049,61.245628 78.778343,61.478409 77.302292,61.845360 
	C76.973221,61.225971 76.973495,60.472404 77.010796,59.343971 
	C78.345123,59.415901 79.642433,59.862698 81.005745,60.661171 
z"/>
<path fill="#BF6455" opacity="1.000000" stroke="none" 
	d="
M72.792419,67.096291 
	C72.901451,67.299339 72.717194,67.557388 72.243172,67.873276 
	C72.129097,67.667969 72.311005,67.408020 72.792419,67.096291 
z"/>
<path fill="#BF6455" opacity="1.000000" stroke="none" 
	d="
M76.758186,62.094261 
	C76.882149,62.304508 76.702057,62.571495 76.233360,62.913986 
	C76.098007,62.705418 76.267799,62.425919 76.758186,62.094261 
z"/>
<path fill="#FAEEEC" opacity="1.000000" stroke="none" 
	d="
M175.150391,45.071671 
	C186.425034,39.636711 196.683441,41.815819 201.470154,51.119148 
	C206.318085,60.541466 202.305862,71.124550 192.072266,75.896385 
	C185.664139,78.884438 177.021240,76.584511 172.074829,70.574959 
	C166.731552,64.083229 166.572403,55.195267 171.747604,48.497395 
	C172.654175,47.324085 173.809341,46.342854 175.150391,45.071671 
z"/>
<path fill="#F6EBEB" opacity="1.000000" stroke="none" 
	d="
M200.625183,38.184372 
	C202.997696,38.780743 206.380646,36.137268 207.312134,40.758102 
	C206.146576,42.643887 204.881119,44.113113 203.400345,45.832317 
	C202.064255,43.286377 197.012604,42.693054 200.625183,38.184372 
z"/>
<path fill="#DD8B7E" opacity="1.000000" stroke="none" 
	d="
M199.077896,35.319321 
	C199.498734,35.231148 200.077515,35.404488 200.803741,35.854424 
	C200.379395,35.947624 199.807617,35.764225 199.077896,35.319321 
z"/>
<path fill="#DD8B7E" opacity="1.000000" stroke="none" 
	d="
M198.277802,34.850513 
	C198.344437,34.724625 198.611526,34.739712 198.918381,34.923088 
	C198.958130,35.091377 198.478271,34.991486 198.277802,34.850513 
z"/>
<path fill="#DD8B7E" opacity="1.000000" stroke="none" 
	d="
M195.357056,36.066391 
	C195.267319,35.850803 195.430710,35.552242 195.832489,35.147667 
	C195.917313,35.355576 195.763733,35.669498 195.357056,36.066391 
z"/>
<path fill="#FCEFED" opacity="1.000000" stroke="none" 
	d="
M161.679230,96.124321 
	C159.198044,103.597588 153.981735,108.411613 147.036224,109.185196 
	C139.559296,110.017960 132.744263,106.916634 128.868530,99.588135 
	C125.507759,93.233360 126.483063,85.106194 131.268768,79.583694 
	C135.997650,74.126770 144.078949,72.120544 150.769730,74.742462 
	C157.837708,77.512199 162.182953,83.780502 162.148209,91.258118 
	C162.141296,92.747383 161.913925,94.235634 161.679230,96.124321 
z"/>
<path fill="#E17762" opacity="1.000000" stroke="none" 
	d="
M222.001221,39.000847 
	C223.835800,39.984589 225.670380,40.968327 227.504974,41.952068 
	C226.958313,42.480270 226.411652,43.008476 225.865005,43.536682 
	C224.421387,43.066223 222.803726,41.976925 221.588562,42.318703 
	C220.594513,42.598293 220.080399,44.584267 218.375885,45.319031 
	C219.394119,43.353718 220.412338,41.388405 221.715271,39.211548 
	C222.000000,39.000000 222.001221,39.000843 222.001221,39.000847 
z"/>
<path fill="#E17762" opacity="1.000000" stroke="none" 
	d="
M221.999390,38.999313 
	C222.170898,38.445587 222.343033,37.892551 222.757568,37.169754 
	C223.000000,37.000000 223.000824,37.000595 223.000824,37.000595 
	C222.828812,37.553806 222.656799,38.107018 222.243011,38.830536 
	C222.001221,39.000843 222.000000,39.000000 221.999390,38.999313 
z"/>
<path fill="#E17762" opacity="1.000000" stroke="none" 
	d="
M222.999390,36.999512 
	C223.117355,36.581497 223.235931,36.163971 223.354507,35.746445 
	C223.368210,36.082989 223.381912,36.419537 223.198212,36.878338 
	C223.000824,37.000595 223.000000,37.000000 222.999390,36.999512 
z"/>
<path fill="#E17762" opacity="1.000000" stroke="none" 
	d="
M224.471970,33.456993 
	C224.522049,33.427883 224.421890,33.486103 224.471970,33.456993 
z"/>
<path fill="#E17762" opacity="1.000000" stroke="none" 
	d="
M226.456802,46.527702 
	C226.428207,46.477325 226.485397,46.578079 226.456802,46.527702 
z"/>
<path fill="#FBEFED" opacity="1.000000" stroke="none" 
	d="
M92.862167,72.262894 
	C85.933929,65.889633 83.966949,58.755676 86.911324,51.433487 
	C89.730003,44.423878 96.837029,39.701859 104.075233,40.029514 
	C111.545952,40.367699 117.875954,45.324139 120.295311,52.729965 
	C123.300758,61.929886 117.813759,71.780037 108.610443,75.024483 
	C102.707146,77.105576 97.916542,75.648880 92.862167,72.262894 
z"/>
<path fill="#503C4D" opacity="1.000000" stroke="none" 
	d="
M82.011520,61.899971 
	C82.528862,63.117630 83.046211,64.335289 83.173126,65.453629 
	C82.525635,64.202866 82.268578,63.051418 82.011520,61.899971 
z"/>
<path fill="#BF6455" opacity="1.000000" stroke="none" 
	d="
M81.799438,61.835922 
	C82.268578,63.051418 82.525635,64.202866 82.943344,65.675583 
	C82.891472,66.283356 82.678955,66.569862 82.230530,66.990616 
	C81.816513,67.081978 81.638397,67.039108 81.189484,66.944473 
	C80.961960,65.434914 81.005234,63.977139 81.108521,62.073326 
	C81.168533,61.627296 81.587364,61.771873 81.799438,61.835922 
z"/>
<path fill="#BF6455" opacity="1.000000" stroke="none" 
	d="
M79.885483,67.094826 
	C79.685158,67.648056 79.152077,68.198822 78.342682,68.818939 
	C78.561821,68.289650 79.057274,67.691002 79.885483,67.094826 
z"/>
<path fill="#EF866F" opacity="1.000000" stroke="none" 
	d="
M215.988434,32.008621 
	C215.867874,31.875391 215.758331,31.733383 215.648788,31.591377 
	C215.731995,31.635605 215.815216,31.679832 215.957672,31.850941 
	C216.016907,31.977823 215.999435,31.999846 215.988434,32.008621 
z"/>
</svg>