<svg id="visual" viewBox="0 0 900 600" width="900" height="600" xmlns="http://www.w3.org/2000/svg" xmlns:xlink="http://www.w3.org/1999/xlink" version="1.1"><rect x="0" y="0" width="900" height="600" fill="#fff"></rect><defs><linearGradient id="grad1_0" x1="33.3%" y1="0%" x2="100%" y2="100%"><stop offset="20%" stop-color="#f4f5ff" stop-opacity="1"></stop><stop offset="80%" stop-color="#f4f5ff" stop-opacity="1"></stop></linearGradient></defs><defs><linearGradient id="grad1_1" x1="33.3%" y1="0%" x2="100%" y2="100%"><stop offset="20%" stop-color="#f4f5ff" stop-opacity="1"></stop><stop offset="80%" stop-color="#ffffff" stop-opacity="1"></stop></linearGradient></defs><defs><linearGradient id="grad2_0" x1="0%" y1="0%" x2="66.7%" y2="100%"><stop offset="20%" stop-color="#f4f5ff" stop-opacity="1"></stop><stop offset="80%" stop-color="#f4f5ff" stop-opacity="1"></stop></linearGradient></defs><defs><linearGradient id="grad2_1" x1="0%" y1="0%" x2="66.7%" y2="100%"><stop offset="20%" stop-color="#ffffff" stop-opacity="1"></stop><stop offset="80%" stop-color="#f4f5ff" stop-opacity="1"></stop></linearGradient></defs><g transform="translate(900, 0)"><path d="M0 540.8C-19.7 493.9 -39.3 447 -63.5 441.5C-87.6 435.9 -116.3 471.7 -142 483.6C-167.7 495.4 -190.6 483.3 -218.5 478.5C-246.5 473.7 -279.6 476.2 -289.2 450.1C-298.9 424 -285.2 369.3 -305.8 352.9C-326.4 336.6 -381.4 358.6 -401.3 347.7C-421.2 336.9 -406.2 293.2 -419.8 269.8C-433.4 246.4 -475.6 243.4 -492 224.7C-508.4 206 -499 171.5 -484.5 142.3C-470.1 113 -450.7 88.9 -459.3 66C-467.8 43.2 -504.3 21.6 -540.8 0L0 0Z" fill="#fafaff"></path><path d="M0 270.4C-9.8 247 -19.7 223.5 -31.7 220.7C-43.8 218 -58.1 235.9 -71 241.8C-83.9 247.7 -95.3 241.6 -109.3 239.2C-123.2 236.8 -139.8 238.1 -144.6 225C-149.5 212 -142.6 184.6 -152.9 176.5C-163.2 168.3 -190.7 179.3 -200.7 173.9C-210.6 168.4 -203.1 146.6 -209.9 134.9C-216.7 123.2 -237.8 121.7 -246 112.3C-254.2 103 -249.5 85.8 -242.3 71.1C-235.1 56.5 -225.4 44.4 -229.6 33C-233.9 21.6 -252.2 10.8 -270.4 0L0 0Z" fill="#f4f5ff"></path></g><g transform="translate(0, 600)"><path d="M0 -540.8C28.5 -550.8 56.9 -560.7 77 -535.3C97 -509.9 108.6 -449.1 124 -422.2C139.3 -395.2 158.5 -402.2 191.5 -419.3C224.6 -436.5 271.5 -463.8 289.2 -450.1C307 -436.3 295.5 -381.5 314.3 -362.8C333.2 -344 382.3 -361.4 406.6 -352.3C430.9 -343.2 430.2 -307.7 434.9 -279.5C439.6 -251.3 449.7 -230.5 452.1 -206.5C454.5 -182.4 449.2 -155.2 449 -131.9C448.9 -108.5 454 -88.9 470.2 -67.6C486.3 -46.3 513.6 -23.1 540.8 0L0 0Z" fill="#fafaff"></path><path d="M0 -270.4C14.2 -275.4 28.5 -280.4 38.5 -267.7C48.5 -255 54.3 -224.6 62 -211.1C69.7 -197.6 79.2 -201.1 95.8 -209.7C112.3 -218.2 135.8 -231.9 144.6 -225C153.5 -218.2 147.7 -190.7 157.2 -181.4C166.6 -172 191.2 -180.7 203.3 -176.2C215.4 -171.6 215.1 -153.8 217.5 -139.8C219.8 -125.7 224.9 -115.2 226 -103.2C227.2 -91.2 224.6 -77.6 224.5 -65.9C224.5 -54.2 227 -44.5 235.1 -33.8C243.2 -23.1 256.8 -11.6 270.4 0L0 0Z" fill="#f4f5ff"></path></g></svg>