<svg id="visual" viewBox="0 0 900 600" width="900" height="600" xmlns="http://www.w3.org/2000/svg" xmlns:xlink="http://www.w3.org/1999/xlink" version="1.1"><rect width="900" height="600" fill="#ffffff"></rect><g><g transform="translate(70 313)"><path d="M0 -147L127.3 -73.5L127.3 73.5L0 147L-127.3 73.5L-127.3 -73.5Z" fill="#f4f5ff"></path></g><g transform="translate(871 370)"><path d="M0 -143L123.8 -71.5L123.8 71.5L0 143L-123.8 71.5L-123.8 -71.5Z" fill="#f4f5ff"></path></g><g transform="translate(656 148)"><path d="M0 -131L113.4 -65.5L113.4 65.5L0 131L-113.4 65.5L-113.4 -65.5Z" fill="#f4f5ff"></path></g><g transform="translate(354 4)"><path d="M0 -139L120.4 -69.5L120.4 69.5L0 139L-120.4 69.5L-120.4 -69.5Z" fill="#f4f5ff"></path></g><g transform="translate(233 578)"><path d="M0 -131L113.4 -65.5L113.4 65.5L0 131L-113.4 65.5L-113.4 -65.5Z" fill="#f4f5ff"></path></g><g transform="translate(563 529)"><path d="M0 -144L124.7 -72L124.7 72L0 144L-124.7 72L-124.7 -72Z" fill="#f4f5ff"></path></g></g></svg>