<svg id="visual" viewBox="0 0 900 600" width="900" height="600" xmlns="http://www.w3.org/2000/svg" xmlns:xlink="http://www.w3.org/1999/xlink" version="1.1"><g stroke-width="1" stroke-linejoin="bevel"><path d="M445 313L305 441L440 463Z" fill="#ffffff" stroke="#ffffff"></path><path d="M445 313L294 288L305 441Z" fill="#f9f9ff" stroke="#f9f9ff"></path><path d="M440 463L588 437L445 313Z" fill="#f8f8ff" stroke="#f8f8ff"></path><path d="M309 600L456 600L440 463Z" fill="#f9f9ff" stroke="#f9f9ff"></path><path d="M440 463L456 600L588 437Z" fill="#f9f9ff" stroke="#f9f9ff"></path><path d="M305 441L309 600L440 463Z" fill="#fafaff" stroke="#fafaff"></path><path d="M148 442L309 600L305 441Z" fill="#fcfcff" stroke="#fcfcff"></path><path d="M294 288L155 309L305 441Z" fill="#fefeff" stroke="#fefeff"></path><path d="M155 309L148 442L305 441Z" fill="#fefeff" stroke="#fefeff"></path><path d="M588 437L611 302L445 313Z" fill="#f4f5ff" stroke="#f4f5ff"></path><path d="M445 313L448 147L294 288Z" fill="#f8f8ff" stroke="#f8f8ff"></path><path d="M611 302L448 147L445 313Z" fill="#f8f8ff" stroke="#f8f8ff"></path><path d="M294 288L144 157L155 309Z" fill="#f9f9ff" stroke="#f9f9ff"></path><path d="M448 147L300 151L294 288Z" fill="#fcfcff" stroke="#fcfcff"></path><path d="M456 600L601 600L588 437Z" fill="#f9f9ff" stroke="#f9f9ff"></path><path d="M588 437L741 460L611 302Z" fill="#fafaff" stroke="#fafaff"></path><path d="M148 442L142 600L309 600Z" fill="#f4f5ff" stroke="#f4f5ff"></path><path d="M300 151L144 157L294 288Z" fill="#f5f6ff" stroke="#f5f6ff"></path><path d="M155 309L0 311L148 442Z" fill="#fbfbff" stroke="#fbfbff"></path><path d="M148 442L0 463L142 600Z" fill="#f6f7ff" stroke="#f6f7ff"></path><path d="M611 302L612 141L448 147Z" fill="#f5f6ff" stroke="#f5f6ff"></path><path d="M448 147L303 0L300 151Z" fill="#fcfcff" stroke="#fcfcff"></path><path d="M601 600L741 460L588 437Z" fill="#f4f5ff" stroke="#f4f5ff"></path><path d="M611 302L749 287L612 141Z" fill="#fbfbff" stroke="#fbfbff"></path><path d="M741 460L749 287L611 302Z" fill="#f5f6ff" stroke="#f5f6ff"></path><path d="M144 157L0 311L155 309Z" fill="#fafaff" stroke="#fafaff"></path><path d="M610 0L444 0L448 147Z" fill="#fbfbff" stroke="#fbfbff"></path><path d="M300 151L160 0L144 157Z" fill="#f9f9ff" stroke="#f9f9ff"></path><path d="M0 311L0 463L148 442Z" fill="#fafaff" stroke="#fafaff"></path><path d="M444 0L303 0L448 147Z" fill="#f6f7ff" stroke="#f6f7ff"></path><path d="M601 600L744 600L741 460Z" fill="#fcfcff" stroke="#fcfcff"></path><path d="M741 460L900 444L749 287Z" fill="#fdfdff" stroke="#fdfdff"></path><path d="M0 463L0 600L142 600Z" fill="#f8f8ff" stroke="#f8f8ff"></path><path d="M749 287L755 149L612 141Z" fill="#f4f5ff" stroke="#f4f5ff"></path><path d="M612 141L610 0L448 147Z" fill="#ffffff" stroke="#ffffff"></path><path d="M900 307L755 149L749 287Z" fill="#f5f6ff" stroke="#f5f6ff"></path><path d="M144 157L0 158L0 311Z" fill="#fefeff" stroke="#fefeff"></path><path d="M303 0L160 0L300 151Z" fill="#f9f9ff" stroke="#f9f9ff"></path><path d="M0 0L0 158L144 157Z" fill="#f4f5ff" stroke="#f4f5ff"></path><path d="M749 0L610 0L612 141Z" fill="#fefeff" stroke="#fefeff"></path><path d="M900 600L900 444L741 460Z" fill="#f8f8ff" stroke="#f8f8ff"></path><path d="M900 444L900 307L749 287Z" fill="#f4f5ff" stroke="#f4f5ff"></path><path d="M900 136L749 0L755 149Z" fill="#fdfdff" stroke="#fdfdff"></path><path d="M755 149L749 0L612 141Z" fill="#fefeff" stroke="#fefeff"></path><path d="M160 0L0 0L144 157Z" fill="#f4f5ff" stroke="#f4f5ff"></path><path d="M744 600L900 600L741 460Z" fill="#f4f5ff" stroke="#f4f5ff"></path><path d="M900 307L900 136L755 149Z" fill="#f4f5ff" stroke="#f4f5ff"></path><path d="M900 136L900 0L749 0Z" fill="#f6f7ff" stroke="#f6f7ff"></path></g></svg>