<svg id="visual" viewBox="0 0 900 600" width="900" height="600" xmlns="http://www.w3.org/2000/svg" xmlns:xlink="http://www.w3.org/1999/xlink" version="1.1"><g stroke-width="1" stroke-linejoin="bevel"><path d="M434 206L225 380L431 399Z" fill="#1c1d1d" stroke="#1c1d1d"></path><path d="M434 206L215 188L225 380Z" fill="#313233" stroke="#313233"></path><path d="M225 380L252 600L431 399Z" fill="#111212" stroke="#111212"></path><path d="M252 600L428 600L431 399Z" fill="#191919" stroke="#191919"></path><path d="M431 399L654 217L434 206Z" fill="#111212" stroke="#111212"></path><path d="M670 424L654 217L431 399Z" fill="#111212" stroke="#111212"></path><path d="M434 206L201 0L215 188Z" fill="#292b2b" stroke="#292b2b"></path><path d="M472 0L201 0L434 206Z" fill="#111212" stroke="#111212"></path><path d="M0 190L0 410L225 380Z" fill="#313233" stroke="#313233"></path><path d="M654 217L472 0L434 206Z" fill="#191919" stroke="#191919"></path><path d="M225 380L0 410L252 600Z" fill="#191919" stroke="#191919"></path><path d="M0 190L225 380L215 188Z" fill="#262727" stroke="#262727"></path><path d="M201 0L0 190L215 188Z" fill="#222424" stroke="#222424"></path><path d="M428 600L670 424L431 399Z" fill="#292b2b" stroke="#292b2b"></path><path d="M654 217L655 0L472 0Z" fill="#292b2b" stroke="#292b2b"></path><path d="M900 178L655 0L654 217Z" fill="#191919" stroke="#191919"></path><path d="M0 410L0 600L252 600Z" fill="#1c1d1d" stroke="#1c1d1d"></path><path d="M201 0L0 0L0 190Z" fill="#1f2020" stroke="#1f2020"></path><path d="M428 600L695 600L670 424Z" fill="#0d0d0d" stroke="#0d0d0d"></path><path d="M670 424L900 397L654 217Z" fill="#1c1d1d" stroke="#1c1d1d"></path><path d="M695 600L900 397L670 424Z" fill="#1c1d1d" stroke="#1c1d1d"></path><path d="M900 397L900 178L654 217Z" fill="#0d0d0d" stroke="#0d0d0d"></path><path d="M695 600L900 600L900 397Z" fill="#262727" stroke="#262727"></path><path d="M900 178L900 0L655 0Z" fill="#111212" stroke="#111212"></path></g></svg>