<svg id="visual" viewBox="0 0 900 600" width="900" height="600" xmlns="http://www.w3.org/2000/svg" xmlns:xlink="http://www.w3.org/1999/xlink" version="1.1"><g stroke-width="1" stroke-linejoin="bevel"><path d="M466 272L386 230L396 307Z" fill="#fefeff" stroke="#fefeff"></path><path d="M386 230L320 260L396 307Z" fill="#fafaff" stroke="#fafaff"></path><path d="M317 405L395 393L396 307Z" fill="#fafaff" stroke="#fafaff"></path><path d="M396 307L395 393L466 272Z" fill="#ffffff" stroke="#ffffff"></path><path d="M571 284L538 203L466 272Z" fill="#fbfbff" stroke="#fbfbff"></path><path d="M466 272L438 130L386 230Z" fill="#fcfcff" stroke="#fcfcff"></path><path d="M538 203L438 130L466 272Z" fill="#f4f5ff" stroke="#f4f5ff"></path><path d="M386 230L281 224L320 260Z" fill="#fbfbff" stroke="#fbfbff"></path><path d="M318 84L281 224L386 230Z" fill="#fdfdff" stroke="#fdfdff"></path><path d="M320 260L317 405L396 307Z" fill="#f6f7ff" stroke="#f6f7ff"></path><path d="M538 439L571 284L466 272Z" fill="#ffffff" stroke="#ffffff"></path><path d="M172 321L317 405L320 260Z" fill="#f9f9ff" stroke="#f9f9ff"></path><path d="M571 284L584 207L538 203Z" fill="#fdfdff" stroke="#fdfdff"></path><path d="M538 203L538 62L438 130Z" fill="#ffffff" stroke="#ffffff"></path><path d="M438 130L318 84L386 230Z" fill="#fbfbff" stroke="#fbfbff"></path><path d="M426 491L538 439L395 393Z" fill="#f6f7ff" stroke="#f6f7ff"></path><path d="M395 393L538 439L466 272Z" fill="#fbfbff" stroke="#fbfbff"></path><path d="M212 116L200 234L281 224Z" fill="#f9f9ff" stroke="#f9f9ff"></path><path d="M281 224L172 321L320 260Z" fill="#f9f9ff" stroke="#f9f9ff"></path><path d="M317 405L426 491L395 393Z" fill="#fcfcff" stroke="#fcfcff"></path><path d="M622 124L538 62L538 203Z" fill="#ffffff" stroke="#ffffff"></path><path d="M438 130L434 0L318 84Z" fill="#fafaff" stroke="#fafaff"></path><path d="M426 491L486 501L538 439Z" fill="#fafaff" stroke="#fafaff"></path><path d="M725 231L622 124L584 207Z" fill="#f4f5ff" stroke="#f4f5ff"></path><path d="M584 207L622 124L538 203Z" fill="#fafaff" stroke="#fafaff"></path><path d="M661 327L584 207L571 284Z" fill="#fcfcff" stroke="#fcfcff"></path><path d="M621 415L571 284L538 439Z" fill="#fcfcff" stroke="#fcfcff"></path><path d="M621 415L661 327L571 284Z" fill="#f9f9ff" stroke="#f9f9ff"></path><path d="M564 494L621 415L538 439Z" fill="#f8f8ff" stroke="#f8f8ff"></path><path d="M200 234L172 321L281 224Z" fill="#f8f8ff" stroke="#f8f8ff"></path><path d="M317 405L311 537L426 491Z" fill="#f6f7ff" stroke="#f6f7ff"></path><path d="M318 84L212 116L281 224Z" fill="#fefeff" stroke="#fefeff"></path><path d="M200 234L86 337L172 321Z" fill="#fafaff" stroke="#fafaff"></path><path d="M467 0L434 0L438 130Z" fill="#fdfdff" stroke="#fdfdff"></path><path d="M318 84L225 0L212 116Z" fill="#fafaff" stroke="#fafaff"></path><path d="M538 62L467 0L438 130Z" fill="#f4f5ff" stroke="#f4f5ff"></path><path d="M569 0L467 0L538 62Z" fill="#f4f5ff" stroke="#f4f5ff"></path><path d="M486 501L564 494L538 439Z" fill="#f4f5ff" stroke="#f4f5ff"></path><path d="M172 321L188 413L317 405Z" fill="#fafaff" stroke="#fafaff"></path><path d="M434 0L305 0L318 84Z" fill="#f8f8ff" stroke="#f8f8ff"></path><path d="M187 511L311 537L317 405Z" fill="#ffffff" stroke="#ffffff"></path><path d="M426 491L431 600L486 501Z" fill="#f5f6ff" stroke="#f5f6ff"></path><path d="M486 501L488 600L564 494Z" fill="#fafaff" stroke="#fafaff"></path><path d="M622 124L569 0L538 62Z" fill="#fafaff" stroke="#fafaff"></path><path d="M765 277L725 231L661 327Z" fill="#f6f7ff" stroke="#f6f7ff"></path><path d="M661 327L725 231L584 207Z" fill="#f5f6ff" stroke="#f5f6ff"></path><path d="M622 124L694 63L569 0Z" fill="#fefeff" stroke="#fefeff"></path><path d="M225 0L138 107L212 116Z" fill="#f4f5ff" stroke="#f4f5ff"></path><path d="M212 116L138 107L200 234Z" fill="#fbfbff" stroke="#fbfbff"></path><path d="M305 0L225 0L318 84Z" fill="#f5f6ff" stroke="#f5f6ff"></path><path d="M311 537L431 600L426 491Z" fill="#f6f7ff" stroke="#f6f7ff"></path><path d="M685 521L719 420L621 415Z" fill="#fbfbff" stroke="#fbfbff"></path><path d="M621 415L719 420L661 327Z" fill="#f4f5ff" stroke="#f4f5ff"></path><path d="M685 521L621 415L564 494Z" fill="#fafaff" stroke="#fafaff"></path><path d="M188 413L187 511L317 405Z" fill="#fafaff" stroke="#fafaff"></path><path d="M311 537L291 600L431 600Z" fill="#f4f5ff" stroke="#f4f5ff"></path><path d="M106 431L187 511L188 413Z" fill="#fafaff" stroke="#fafaff"></path><path d="M86 337L188 413L172 321Z" fill="#f5f6ff" stroke="#f5f6ff"></path><path d="M75 161L86 337L200 234Z" fill="#f4f5ff" stroke="#f4f5ff"></path><path d="M775 102L694 63L622 124Z" fill="#f6f7ff" stroke="#f6f7ff"></path><path d="M431 600L488 600L486 501Z" fill="#fcfcff" stroke="#fcfcff"></path><path d="M762 370L765 277L661 327Z" fill="#f4f5ff" stroke="#f4f5ff"></path><path d="M725 231L775 102L622 124Z" fill="#fdfdff" stroke="#fdfdff"></path><path d="M86 337L106 431L188 413Z" fill="#f4f5ff" stroke="#f4f5ff"></path><path d="M206 600L291 600L311 537Z" fill="#fefeff" stroke="#fefeff"></path><path d="M719 420L762 370L661 327Z" fill="#ffffff" stroke="#ffffff"></path><path d="M0 114L75 161L138 107Z" fill="#fdfdff" stroke="#fdfdff"></path><path d="M138 107L75 161L200 234Z" fill="#fefeff" stroke="#fefeff"></path><path d="M582 600L685 521L564 494Z" fill="#fefeff" stroke="#fefeff"></path><path d="M719 420L836 483L762 370Z" fill="#f5f6ff" stroke="#f5f6ff"></path><path d="M488 600L582 600L564 494Z" fill="#fefeff" stroke="#fefeff"></path><path d="M900 210L792 223L900 334Z" fill="#f9f9ff" stroke="#f9f9ff"></path><path d="M765 277L792 223L725 231Z" fill="#ffffff" stroke="#ffffff"></path><path d="M795 0L705 0L694 63Z" fill="#fefeff" stroke="#fefeff"></path><path d="M694 63L705 0L569 0Z" fill="#fcfcff" stroke="#fcfcff"></path><path d="M792 223L775 102L725 231Z" fill="#fcfcff" stroke="#fcfcff"></path><path d="M86 516L206 600L187 511Z" fill="#f9f9ff" stroke="#f9f9ff"></path><path d="M187 511L206 600L311 537Z" fill="#f6f7ff" stroke="#f6f7ff"></path><path d="M685 521L836 483L719 420Z" fill="#f5f6ff" stroke="#f5f6ff"></path><path d="M582 600L662 600L685 521Z" fill="#fcfcff" stroke="#fcfcff"></path><path d="M0 474L86 516L106 431Z" fill="#f6f7ff" stroke="#f6f7ff"></path><path d="M106 431L86 516L187 511Z" fill="#f6f7ff" stroke="#f6f7ff"></path><path d="M0 399L106 431L86 337Z" fill="#fafaff" stroke="#fafaff"></path><path d="M0 114L0 217L75 161Z" fill="#f4f5ff" stroke="#f4f5ff"></path><path d="M75 161L0 217L86 337Z" fill="#f5f6ff" stroke="#f5f6ff"></path><path d="M0 217L0 320L86 337Z" fill="#f6f7ff" stroke="#f6f7ff"></path><path d="M0 320L0 399L86 337Z" fill="#f8f8ff" stroke="#f8f8ff"></path><path d="M225 0L66 0L138 107Z" fill="#f9f9ff" stroke="#f9f9ff"></path><path d="M66 0L0 114L138 107Z" fill="#f6f7ff" stroke="#f6f7ff"></path><path d="M900 61L795 0L775 102Z" fill="#fdfdff" stroke="#fdfdff"></path><path d="M775 102L795 0L694 63Z" fill="#fafaff" stroke="#fafaff"></path><path d="M0 399L0 474L106 431Z" fill="#f8f8ff" stroke="#f8f8ff"></path><path d="M86 516L62 600L206 600Z" fill="#fcfcff" stroke="#fcfcff"></path><path d="M789 600L836 483L685 521Z" fill="#fdfdff" stroke="#fdfdff"></path><path d="M900 334L792 223L765 277Z" fill="#ffffff" stroke="#ffffff"></path><path d="M792 223L900 210L775 102Z" fill="#fcfcff" stroke="#fcfcff"></path><path d="M900 334L765 277L762 370Z" fill="#ffffff" stroke="#ffffff"></path><path d="M900 420L900 334L762 370Z" fill="#f9f9ff" stroke="#f9f9ff"></path><path d="M0 600L62 600L86 516Z" fill="#f8f8ff" stroke="#f8f8ff"></path><path d="M66 0L0 0L0 114Z" fill="#fdfdff" stroke="#fdfdff"></path><path d="M662 600L789 600L685 521Z" fill="#fcfcff" stroke="#fcfcff"></path><path d="M836 483L900 420L762 370Z" fill="#f4f5ff" stroke="#f4f5ff"></path><path d="M900 467L900 420L836 483Z" fill="#fbfbff" stroke="#fbfbff"></path><path d="M900 600L900 467L836 483Z" fill="#f9f9ff" stroke="#f9f9ff"></path><path d="M900 210L900 61L775 102Z" fill="#f4f5ff" stroke="#f4f5ff"></path><path d="M0 474L0 600L86 516Z" fill="#fafaff" stroke="#fafaff"></path><path d="M900 61L900 0L795 0Z" fill="#fefeff" stroke="#fefeff"></path><path d="M789 600L900 600L836 483Z" fill="#f9f9ff" stroke="#f9f9ff"></path></g></svg>