<svg id="visual" viewBox="0 0 900 600" width="900" height="600" xmlns="http://www.w3.org/2000/svg" xmlns:xlink="http://www.w3.org/1999/xlink" version="1.1"><rect x="0" y="0" width="900" height="600" fill="#ffffff"></rect><path d="M0 194L4.8 212.8C9.7 231.7 19.3 269.3 29 255.3C38.7 241.3 48.3 175.7 58 186.3C67.7 197 77.3 284 87 299.8C96.7 315.7 106.3 260.3 116 227.7C125.7 195 135.3 185 145 185C154.7 185 164.3 195 174 218.2C183.7 241.3 193.3 277.7 203 327C212.7 376.3 222.3 438.7 232 455C241.7 471.3 251.3 441.7 261 430.7C270.7 419.7 280.3 427.3 290 440.5C299.7 453.7 309.3 472.3 319 441.2C328.7 410 338.3 329 348 282.3C357.7 235.7 367.3 223.3 377 217.7C386.7 212 396.3 213 406 202.2C415.7 191.3 425.3 168.7 435.2 162.7C445 156.7 455 167.3 464.8 197.8C474.7 228.3 484.3 278.7 494 301.8C503.7 325 513.3 321 523 302.8C532.7 284.7 542.3 252.3 552 262.8C561.7 273.3 571.3 326.7 581 362.7C590.7 398.7 600.3 417.3 610 395.2C619.7 373 629.3 310 639 268.3C648.7 226.7 658.3 206.3 668 236.8C677.7 267.3 687.3 348.7 697 349.3C706.7 350 716.3 270 726 233.5C735.7 197 745.3 204 755 188.3C764.7 172.7 774.3 134.3 784 124.3C793.7 114.3 803.3 132.7 813 184.5C822.7 236.3 832.3 321.7 842 331.7C851.7 341.7 861.3 276.3 871 265.3C880.7 254.3 890.3 297.7 895.2 319.3L900 341L900 601L895.2 601C890.3 601 880.7 601 871 601C861.3 601 851.7 601 842 601C832.3 601 822.7 601 813 601C803.3 601 793.7 601 784 601C774.3 601 764.7 601 755 601C745.3 601 735.7 601 726 601C716.3 601 706.7 601 697 601C687.3 601 677.7 601 668 601C658.3 601 648.7 601 639 601C629.3 601 619.7 601 610 601C600.3 601 590.7 601 581 601C571.3 601 561.7 601 552 601C542.3 601 532.7 601 523 601C513.3 601 503.7 601 494 601C484.3 601 474.7 601 464.8 601C455 601 445 601 435.2 601C425.3 601 415.7 601 406 601C396.3 601 386.7 601 377 601C367.3 601 357.7 601 348 601C338.3 601 328.7 601 319 601C309.3 601 299.7 601 290 601C280.3 601 270.7 601 261 601C251.3 601 241.7 601 232 601C222.3 601 212.7 601 203 601C193.3 601 183.7 601 174 601C164.3 601 154.7 601 145 601C135.3 601 125.7 601 116 601C106.3 601 96.7 601 87 601C77.3 601 67.7 601 58 601C48.3 601 38.7 601 29 601C19.3 601 9.7 601 4.8 601L0 601Z" fill="#f4f5ff" stroke-linecap="round" stroke-linejoin="miter"></path></svg>