<?xml version="1.0" encoding="UTF-8"?> <svg xmlns="http://www.w3.org/2000/svg" width="527.544" height="293.434" viewBox="0 0 527.544 293.434"><g id="Group_14804" data-name="Group 14804" transform="translate(-575.73 -362.837)"><path id="Path_590" data-name="Path 590" d="M101.778,435.723c-15.889-.056-45.173,1.047-41.557-4.535s22.69-.119,38.324-1.983,29.791-4.018,45.781-1.26,11.528,4.877,4.626,6.832-.695,1.878-22.665,1.456S107.965,435.744,101.778,435.723Z" transform="translate(538.332 219.793)" opacity="0.26"></path><g id="Group_432" data-name="Group 432" transform="translate(645.901 362.837)"><g id="Group_431" data-name="Group 431"><path id="Rectangle_82" data-name="Rectangle 82" d="M4.219,0H375.761a4.219,4.219,0,0,1,4.219,4.219V255.455a0,0,0,0,1,0,0H0a0,0,0,0,1,0,0V4.219A4.219,4.219,0,0,1,4.219,0Z" transform="translate(38.696)" fill="#5d9ae6"></path><path id="Rectangle_83" data-name="Rectangle 83" d="M0,0H457.373a0,0,0,0,1,0,0V23.275a4.219,4.219,0,0,1-4.219,4.219H4.219A4.219,4.219,0,0,1,0,23.275V0A0,0,0,0,1,0,0Z" transform="translate(0 237.163)" fill="#5d9ae6"></path><rect id="Rectangle_84" data-name="Rectangle 84" width="340.581" height="195.257" transform="translate(58.501 22.394)" fill="#d9e5f4"></rect></g><path id="Path_731" data-name="Path 731" d="M505.457,426.154H74.7c-4.7,0-8.507-4.217-8.507-9.419h0a2,2,0,0,1,1.889-2.091H512.074a2,2,0,0,1,1.889,2.091h0C513.963,421.936,510.154,426.154,505.457,426.154Z" transform="translate(-63.151 -172.905)" fill="#92c0f9"></path></g><g id="Group_447" data-name="Group 447" transform="translate(786.707 382.642)"><g id="Group_433" data-name="Group 433" transform="translate(0)"><path id="Rectangle_85" data-name="Rectangle 85" d="M4.315,0H176.149a4.315,4.315,0,0,1,4.315,4.315v102.61a4.4,4.4,0,0,1-4.4,4.4H4.4a4.4,4.4,0,0,1-4.4-4.4V4.315A4.315,4.315,0,0,1,4.315,0Z" transform="translate(0 72.823)" fill="#b9682d"></path><path id="Path_732" data-name="Path 732" d="M202.021,348.7l68.967,59.753a9.4,9.4,0,0,1-6.657,3.007H103.01a9.33,9.33,0,0,1-6.579-3.113l87.223-75.6Z" transform="translate(-93.422 -332.748)" fill="#f68b3c"></path></g><path id="Path_733" data-name="Path 733" d="M143.015,391.419l.977.687h0l-.977-.687Z" transform="translate(-33.473 -257.243)" fill="#34719d"></path><g id="Group_439" data-name="Group 439" transform="translate(11.47 10.486)"><path id="Path_734" data-name="Path 734" d="M110.939,337.333a10.808,10.808,0,0,0-10.808,10.808v145.9H255.308v-145.9a10.809,10.809,0,0,1,10.81-10.808Z" transform="translate(-100.131 -337.333)" fill="#fff"></path><g id="Group_438" data-name="Group 438" transform="translate(20.665 35.24)"><g id="Group_434" data-name="Group 434" opacity="0.2"><rect id="Rectangle_86" data-name="Rectangle 86" width="41.596" height="2.376" transform="translate(6.214)" fill="#177bac"></rect><rect id="Rectangle_87" data-name="Rectangle 87" width="47.81" height="2.376" transform="translate(0 6.408)" fill="#177bac"></rect><rect id="Rectangle_88" data-name="Rectangle 88" width="47.81" height="2.376" transform="translate(0 12.816)" fill="#177bac"></rect><rect id="Rectangle_89" data-name="Rectangle 89" width="47.81" height="2.376" transform="translate(0 19.223)" fill="#177bac"></rect><rect id="Rectangle_90" data-name="Rectangle 90" width="26.288" height="2.376" transform="translate(0 25.631)" fill="#177bac"></rect></g><g id="Group_435" data-name="Group 435" transform="translate(58.158)" opacity="0.2"><rect id="Rectangle_91" data-name="Rectangle 91" width="48.242" height="2.376" transform="translate(7.206)" fill="#177bac"></rect><rect id="Rectangle_92" data-name="Rectangle 92" width="55.448" height="2.376" transform="translate(0 6.408)" fill="#177bac"></rect><rect id="Rectangle_93" data-name="Rectangle 93" width="55.448" height="2.376" transform="translate(0 12.816)" fill="#177bac"></rect><rect id="Rectangle_94" data-name="Rectangle 94" width="55.448" height="2.376" transform="translate(0 19.223)" fill="#177bac"></rect><rect id="Rectangle_95" data-name="Rectangle 95" width="30.487" height="2.376" transform="translate(0 25.631)" fill="#177bac"></rect></g><g id="Group_436" data-name="Group 436" transform="translate(0 33.72)" opacity="0.2"><rect id="Rectangle_96" data-name="Rectangle 96" width="41.596" height="2.376" transform="translate(6.214)" fill="#177bac"></rect><rect id="Rectangle_97" data-name="Rectangle 97" width="47.81" height="2.375" transform="translate(0 6.408)" fill="#177bac"></rect><rect id="Rectangle_98" data-name="Rectangle 98" width="47.81" height="2.376" transform="translate(0 12.815)" fill="#177bac"></rect><rect id="Rectangle_99" data-name="Rectangle 99" width="47.81" height="2.376" transform="translate(0 19.223)" fill="#177bac"></rect><rect id="Rectangle_100" data-name="Rectangle 100" width="26.288" height="2.376" transform="translate(0 25.631)" fill="#177bac"></rect></g><g id="Group_437" data-name="Group 437" transform="translate(58.158 33.72)" opacity="0.2"><rect id="Rectangle_101" data-name="Rectangle 101" width="48.242" height="2.376" transform="translate(7.206)" fill="#177bac"></rect><rect id="Rectangle_102" data-name="Rectangle 102" width="55.448" height="2.375" transform="translate(0 6.408)" fill="#177bac"></rect><rect id="Rectangle_103" data-name="Rectangle 103" width="55.448" height="2.376" transform="translate(0 12.815)" fill="#177bac"></rect><rect id="Rectangle_104" data-name="Rectangle 104" width="55.448" height="2.376" transform="translate(0 19.223)" fill="#177bac"></rect><rect id="Rectangle_105" data-name="Rectangle 105" width="30.487" height="2.376" transform="translate(0 25.631)" fill="#177bac"></rect></g></g></g><g id="Group_446" data-name="Group 446" transform="translate(0.017 74.985)"><g id="Group_442" data-name="Group 442"><g id="Group_440" data-name="Group 440" transform="translate(0 0.538)"><path id="Path_735" data-name="Path 735" d="M167,423.211,98.2,365.772a9.927,9.927,0,0,0-3.078,7.307v90.859a11.107,11.107,0,0,0,3.021,7.7Z" transform="translate(-95.123 -365.772)" fill="#f68b3c"></path><path id="Path_736" data-name="Path 736" d="M211.461,365.8,142.6,423.174,211.461,471.6a11.109,11.109,0,0,0,3.023-7.7v-90.86A9.75,9.75,0,0,0,211.461,365.8Z" transform="translate(-34.021 -365.736)" fill="#f68b3c"></path></g><g id="Group_441" data-name="Group 441" transform="translate(3.084)"><path id="Path_737" data-name="Path 737" d="M96.472,366.074l62.088,51.84L97.1,365.537Z" transform="translate(-96.472 -365.537)" fill="#b9682d" opacity="0.6"></path><path id="Path_738" data-name="Path 738" d="M207.607,366.1,145.6,417.876l61.379-52.311Z" transform="translate(-33.252 -365.499)" fill="#b9682d" opacity="0.6"></path></g></g><g id="Group_445" data-name="Group 445" transform="translate(1.939 46.544)"><g id="Group_443" data-name="Group 443"><path id="Path_739" data-name="Path 739" d="M159.072,391.611l-63.1,52.782a10.6,10.6,0,0,0,1.082,1.354L159.2,391.721l6.708-5.832Z" transform="translate(-95.971 -385.889)" fill="#b9682d" opacity="0.6"></path><path id="Path_740" data-name="Path 740" d="M149.422,391.634l-6.82-5.745,6.71,5.834,62.15,54.024a10.733,10.733,0,0,0,.9-1.1Z" transform="translate(-35.96 -385.889)" fill="#b9682d" opacity="0.6"></path></g><g id="Group_444" data-name="Group 444" transform="translate(1.082)"><path id="Path_741" data-name="Path 741" d="M165.3,385.889,96.444,445.747a9.055,9.055,0,0,0,6.55,2.9h161.32a9.055,9.055,0,0,0,6.55-2.9L202,385.889Z" transform="translate(-96.444 -385.889)" fill="#f68b3c"></path></g></g></g></g><g id="Group_469" data-name="Group 469" transform="translate(575.73 441.806)"><g id="Group_452" data-name="Group 452" transform="translate(68.481)"><g id="Group_449" data-name="Group 449" transform="translate(0 23.326)"><g id="Group_448" data-name="Group 448" transform="translate(6.575 0)"><rect id="Rectangle_106" data-name="Rectangle 106" width="10.78" height="6.738" transform="matrix(0.085, -0.996, 0.996, 0.085, 0, 10.741)" fill="#fbcda6"></rect></g><rect id="Rectangle_107" data-name="Rectangle 107" width="19.429" height="11.06" transform="translate(19.358 19.315) rotate(-175.097)" fill="#fbcda6"></rect></g><g id="Group_451" data-name="Group 451" transform="translate(2.053)"><g id="Group_450" data-name="Group 450"><path id="Path_742" data-name="Path 742" d="M90.755,379.833c.988,4.7-1.463,9.193-5.471,10.034s-8.061-2.287-9.046-6.986c-.14-.667-2.3-9.147-2.3-9.793l15.372-3.229C89.561,370.456,90.615,379.167,90.755,379.833Z" transform="translate(-73.009 -363.442)" fill="#fbcda6"></path><path id="Path_743" data-name="Path 743" d="M73.7,378.229a7.229,7.229,0,0,1,4.968-7.8l13.34-2.412a6.353,6.353,0,0,1-1.952,7.237L78.725,377.3l-.175,5.108-.611.136-1.491-2.475-.478.014,1.061,7.974L75.9,386.2,74.4,381.965Z" transform="translate(-73.669 -368.021)" fill="#004e72"></path></g><path id="Path_744" data-name="Path 744" d="M88.566,373.657a25.758,25.758,0,0,1-5.027,2.364,25.059,25.059,0,0,1-6.207.21L75.6,372.142l-.611.136.024,4.72-.164,3.03a11.014,11.014,0,0,0,1.7,2.378,6.334,6.334,0,0,0,4.057,2.067,12.322,12.322,0,0,0,3.184-.325,7.958,7.958,0,0,0,2.664-1.672C89.554,379.708,89.075,375.9,88.566,373.657Z" transform="translate(-70.722 -357.754)" fill="#004e72"></path></g></g><g id="Group_455" data-name="Group 455" transform="translate(88.501 32.436)"><path id="Path_745" data-name="Path 745" d="M103.944,383.409l-6.271,1.764-1.525-.048-.376-.144.29-.637.723-.935v-.715l-1.867,1.158-.912,1.027-1.187.653-2.884,1.354,2.037,4.063,3.464-2.02,3.656-.98,2-1.034,2.746-2.523.183-.672Z" transform="translate(-51.114 -363.902)" fill="#fbcda6"></path><g id="Group_454" data-name="Group 454"><g id="Group_453" data-name="Group 453"><path id="Path_746" data-name="Path 746" d="M102.36,413.109l.314-.241c1.861-1.564,1.924-3.732.395-6.592-3.533-6.616-10.236-19.226-14.862-26.132-2.405-3.593-4.814-3.058-7-2.206l-.408.175c-2.716,1.494-2.65,6.016.216,10.355,4.912,7.433,15.3,23.475,15.3,23.475C97.965,414.02,100.5,414.673,102.36,413.109Z" transform="translate(-78.815 -377.312)" fill="#91b9d7"></path><path id="Path_747" data-name="Path 747" d="M110.047,388.465l-2.468-4.926S93.7,387.117,87.7,390.106c-3.055,1.522-4.581,2.856-3.823,5.167h0c.758,2.311,2.922,4.21,6.637,2.538C96.166,395.263,110.047,388.465,110.047,388.465Z" transform="translate(-66.693 -361.798)" fill="#91b9d7"></path></g></g></g><g id="Group_459" data-name="Group 459" transform="translate(32.69 88.671)"><g id="Group_458" data-name="Group 458" transform="translate(0 115.459)"><g id="Group_456" data-name="Group 456" transform="translate(62.539)"><path id="Path_748" data-name="Path 748" d="M85.7,431.622h-.2l-.042.988h-4.72l.129-1.306.154,0,0-.014.014-4.8h4.9l.1.632L88.3,428.78l7.157,2.049s.562.244.552.552l-.021.569-.01.339s-.087.15-.67.321H87.1l-.5-.66-.485-.3Z" transform="translate(-80.742 -426.49)" fill="#3097b9"></path></g><g id="Group_457" data-name="Group 457"><path id="Path_749" data-name="Path 749" d="M67.79,431.622h-.2l-.045.988h-4.72l.129-1.306.154,0,0-.014,1.142-2.65,1.1-2.147h6.1l-.136.632-.925,1.658,7.157,2.049s.562.244.552.552l-.021.569-.01.339s-.087.15-.67.321H69.187l-.5-.66-.482-.3Z" transform="translate(-62.829 -426.49)" fill="#3097b9"></path></g></g><path id="Path_750" data-name="Path 750" d="M86.035,393.419h33.7v13.056L119,411.763l9.889,49.579,1.788,48.354h-8.1l-5.741-46.755-12.858-42.586-.248-1.838-9.651,44.939L69.785,510.681l-6.447-1.8,16.647-46.148,5.457-47.695-1.611-11.924Z" transform="translate(-61.561 -393.419)" fill="#073e83"></path></g><g id="Group_460" data-name="Group 460" transform="translate(56.57 29.215)"><path id="Path_751" data-name="Path 751" d="M87.38,376.42l1.8,3a3.244,3.244,0,0,0,5.205.482l2.378-2.671.845.073a13.165,13.165,0,0,1,2.3.415,56.253,56.253,0,0,1,5.869,1.145c4.891,1.215,6.417,5.6,6.071,9.639L107.6,413.222l-.59,6.9-1.17,16.9L103.876,440l-33.942-2.5-.265-3.764L72.2,415.184l1.019-16.2-.663-13.626c.248-2.891,1.341-7.7,5.586-8.627C80.4,376.242,87.38,376.42,87.38,376.42Z" transform="translate(-69.669 -376.389)" fill="#91b9d7"></path></g><g id="Group_464" data-name="Group 464" transform="translate(0 9.2)"><path id="Path_752" data-name="Path 752" d="M74.247,413.03l-4.692,1.98a11.578,11.578,0,0,1-15.173-6.166h0a11.579,11.579,0,0,1,6.166-15.173l4.692-1.98Z" transform="translate(-53.466 -318.251)" fill="#fab98a"></path><path id="Path_753" data-name="Path 753" d="M109.63,370.782" transform="translate(86.454 -370.343)" fill="#f68b3c"></path><g id="Group_461" data-name="Group 461" transform="translate(146.609)"><path id="Path_754" data-name="Path 754" d="M130.644,396.613l-26.177,11.05-9.007-21.339,26.178-11.053,36.1-4.6a1.847,1.847,0,0,1,1.383,3.278Z" transform="translate(-95.459 -370.656)" fill="#fab98a"></path><path id="Path_755" data-name="Path 755" d="M110.961,372.181c-1.358,2.615-3.792,8.871,3.771,9.3l9.458-7.527a1.847,1.847,0,0,0-1.383-3.278Z" transform="translate(-60.526 -370.656)" fill="#004e72"></path></g><rect id="Rectangle_108" data-name="Rectangle 108" width="3.783" height="23.163" transform="matrix(0.921, -0.389, 0.389, 0.921, 10.352, 74.041)" fill="#91b9d7"></rect><g id="Group_463" data-name="Group 463" transform="translate(13.34 4.796)"><g id="Group_462" data-name="Group 462" transform="translate(0 0.12)"><path id="Path_756" data-name="Path 756" d="M225.03,393.4,66.294,461.267l-9.007-21.34,158.736-67.863Z" transform="translate(-57.287 -372.064)" fill="#032857"></path><path id="Path_757" data-name="Path 757" d="M219.885,381.215,61.149,449.078l-3-7.113L216.883,374.1Z" transform="translate(-55.144 -366.989)" fill="#4781c9"></path></g><path id="Path_758" data-name="Path 758" d="M110.791,386.257l-3-7.115-3-7.112-.691.29a3.348,3.348,0,0,0-1.781,4.382l.4.953a3.343,3.343,0,0,0,4.378,1.781,3.343,3.343,0,0,0-1.781,4.378l.4.953a3.337,3.337,0,0,0,4.378,1.78,3.348,3.348,0,0,0-1.781,4.382l.4.953a3.348,3.348,0,0,0,4.382,1.781l.691-.293Z" transform="translate(54.235 -372.03)" fill="#fab98a"></path></g></g><g id="Group_468" data-name="Group 468" transform="translate(39.419 29.45)"><g id="Group_467" data-name="Group 467"><path id="Path_759" data-name="Path 759" d="M72.33,388.778l2.856,3.234,1.717.385,2.261.84,3.911,2.366-1.223.58-2.405-.7-.215.412L81.18,398l2.652,2.188-3.749,1.534L75.435,399.5l-1.555-1.631-1.968-3.234L69,391.874Z" transform="translate(-54.181 -345.76)" fill="#fbcda6"></path><g id="Group_466" data-name="Group 466"><g id="Group_465" data-name="Group 465"><path id="Path_760" data-name="Path 760" d="M66.38,407.89l.318.234c2.018,1.362,4.116.824,6.445-1.435,5.387-5.223,15.658-15.142,21.021-21.492,2.79-3.3,1.613-5.471.192-7.332l-.283-.346c-2.182-2.2-6.511-.887-9.891,3.062-5.792,6.77-18.35,21.181-18.35,21.181C64.292,403.917,64.362,406.529,66.38,407.89Z" transform="translate(-64.744 -376.456)" fill="#a7c7df"></path><path id="Path_761" data-name="Path 761" d="M81.279,407.787l4.053-3.736S77.421,391.145,72.889,386.2c-2.3-2.514-4.008-3.617-6.022-2.252h0c-2.011,1.365-3.24,3.973-.607,7.084C70.264,395.76,81.279,407.787,81.279,407.787Z" transform="translate(-64.757 -359.271)" fill="#a7c7df"></path></g></g></g><path id="Path_762" data-name="Path 762" d="M93.072,387.379,94,386.261l-.118-1.586,4.181-1.352.538-.453,1.238-.473-.27,1.853-.241.888-2.746,2.522-1.837.949-3,.845Z" transform="translate(2.482 -361.66)" fill="#fbcda6"></path></g></g><g id="Group_488" data-name="Group 488" transform="translate(989.526 417.022)"><g id="Group_487" data-name="Group 487"><g id="Group_473" data-name="Group 473" transform="translate(50.116 55.996)"><path id="Path_769" data-name="Path 769" d="M186.507,378.815l.684,4.259-.793,1.572-.787,2.28.635,5.073,1.2.2.109-3.044.455.1.01,5.692,3.565-1.921,1.233-5-.272-2.237-1.249-3.573-.282-4Z" transform="translate(-174.169 -321.847)" fill="#fbcda6"></path><g id="Group_472" data-name="Group 472"><path id="Path_770" data-name="Path 770" d="M195.962,402.158l-.391.056c-2.423.22-4-1.264-4.958-4.364-2.21-7.168-6.438-20.808-8.082-28.953-.855-4.239,1.218-5.572,3.362-6.518l.412-.168c2.971-.88,6.134,2.353,7.2,7.443,1.819,8.721,5.89,27.4,5.89,27.4C199.7,399.682,198.385,401.938,195.962,402.158Z" transform="translate(-182.333 -362.067)" fill="#4781c9"></path><path id="Path_771" data-name="Path 771" d="M193.48,398.414l-5.509.028s-3-14.841-3.048-21.548c-.025-3.411.475-5.38,2.877-5.75h0c2.405-.37,5.08.7,5.268,4.773C193.357,382.11,193.48,398.414,193.48,398.414Z" transform="translate(-175.885 -339.624)" fill="#4781c9"></path></g></g><g id="Group_475" data-name="Group 475"><path id="Path_772" data-name="Path 772" d="M168,354.447l.872.51.417,1.287,1.364,3.771,4.285-1.826-1.59-4.3-.492-4.186-1.834-2.5-2.57-1.182-.012,1.4,1.82,1.114-.3.211-1.979-.4Z" transform="translate(-167.979 -346.028)" fill="#fbcda6"></path><g id="Group_474" data-name="Group 474" transform="translate(0.94 9.012)"><path id="Path_773" data-name="Path 773" d="M172.5,354.224l.363-.161c2.269-.873,4.2.122,5.963,2.842,4.078,6.295,10.261,15.271,14.07,22.658,1.98,3.844.157,5.74-1.644,7.237l-.349.272c-2.622,1.658-5.963,1.355-7.15-1.023-3.99-7.964-13.155-25.979-13.155-25.979C169.573,357.628,170.226,355.1,172.5,354.224Z" transform="translate(-163.572 -335.787)" fill="#4781c9"></path><path id="Path_774" data-name="Path 774" d="M168.248,350.142l5.3-1.533s6.934,13.459,8.815,19.9c.957,3.275,1.012,5.307-1.2,6.319h0c-2.21,1.012-5.076.712-6.372-3.153C172.822,365.793,168.248,350.142,168.248,350.142Z" transform="translate(-168.248 -348.609)" fill="#3097b9"></path></g></g><g id="Group_480" data-name="Group 480" transform="translate(31.517 22.39)"><g id="Group_477" data-name="Group 477" transform="translate(0 24.663)"><g id="Group_476" data-name="Group 476" transform="translate(7.601 0)"><rect id="Rectangle_109" data-name="Rectangle 109" width="10.78" height="6.738" transform="translate(0 10.698) rotate(-82.895)" fill="#fbcda6"></rect></g><rect id="Rectangle_110" data-name="Rectangle 110" width="19.429" height="11.06" transform="translate(1.368 6.283) rotate(7.105)" fill="#fbcda6"></rect></g><g id="Group_479" data-name="Group 479" transform="translate(3.839)"><g id="Group_478" data-name="Group 478" transform="translate(0.329)"><path id="Path_775" data-name="Path 775" d="M179.059,363.811c-1.941,4.4-.482,9.3,3.264,10.956s8.362-.558,10.3-4.951c.276-.621,4.151-8.47,4.291-9.1l-14.363-6.358C182.18,354.891,179.335,363.193,179.059,363.811Z" transform="translate(-178.2 -347.66)" fill="#fbcda6"></path><path id="Path_776" data-name="Path 776" d="M195.8,366.235a7.232,7.232,0,0,0-3.236-8.662l-12.548-5.132a6.348,6.348,0,0,0,.4,7.482l10.659,4.357-.89,5.031.565.262,1.973-2.112.468.112-2.7,7.58,1.491-1.582,2.357-3.826Z" transform="translate(-176.32 -352.441)" fill="#004e72"></path></g><path id="Path_777" data-name="Path 777" d="M179.3,356.924a25.651,25.651,0,0,0,4.427,3.362,24.823,24.823,0,0,0,6.029,1.494l2.542-3.638.565.262-1,4.612-.471,3a11.09,11.09,0,0,1-2.165,1.969,6.315,6.315,0,0,1-4.4,1.177,12.087,12.087,0,0,1-3.044-.981,7.912,7.912,0,0,1-2.262-2.189C177.077,362.639,178.337,359.019,179.3,356.924Z" transform="translate(-178.106 -341.273)" fill="#004e72"></path></g></g><g id="Group_486" data-name="Group 486" transform="translate(13.658 51.172)"><g id="Group_484" data-name="Group 484" transform="translate(0 62.227)"><g id="Group_483" data-name="Group 483" transform="translate(0 115.461)"><g id="Group_481" data-name="Group 481"><path id="Path_778" data-name="Path 778" d="M182.2,416.712h.2l.045.985h4.72l-.129-1.3-.154,0,0-.014-.014-4.8h-4.9l-.1.632L179.6,413.87l-7.157,2.046s-.562.248-.552.555l.017.566.014.342s.087.15.67.318H180.8l.5-.66.482-.3Z" transform="translate(-171.891 -411.58)"></path></g><g id="Group_482" data-name="Group 482" transform="translate(22.389)"><path id="Path_779" data-name="Path 779" d="M188.614,416.712h.2l.045.985h4.717l-.126-1.3-.157,0,.007-.014-.014-4.8h-4.9l-.1.632-2.259,1.658-7.157,2.046s-.566.248-.555.555l.021.566.01.342s.087.15.674.318h8.208l.5-.66.482-.3Z" transform="translate(-178.304 -411.58)"></path></g></g><path id="Path_780" data-name="Path 780" d="M206.683,378.509h-33.7v13.056l.743,5.288.5,50.65,2.809,47.284h8.1l-.034-48.275,3.651-41.065.247-1.838,4.948,43.234,6.031,47.626,7.714.132L206,445.812l-.882-40.945,1.421-12.371Z" transform="translate(-169.179 -378.509)" fill="#004e72"></path></g><g id="Group_485" data-name="Group 485" transform="translate(2.594)"><path id="Path_781" data-name="Path 781" d="M193.763,362.273l.841.1,1.767,3.107a3.241,3.241,0,0,0,5.191.611l2.385-2.552s6.86,1.278,8.966,2.227c3.959,1.787,4.029,6.721,3.669,9.6l-3.484,13.19-2.371,16.053-1.383,18.671-1.04,3.624-34.371-1.55-1.3-3.327,3.023-19.834.855-6.867,1.222-26.481c.5-4.018,2.9-7.992,7.943-8.166Z" transform="translate(-172.634 -360.685)" fill="#4781c9"></path></g></g></g><path id="Path_782" data-name="Path 782" d="M178.7,357.835s2.542,3.139,5.946,2.943C184.642,360.778,179.021,364.245,178.7,357.835Z" transform="translate(-141.279 -316.613)" fill="#fbcda6"></path></g></g></svg> 